<svg id="visual" viewBox="0 0 900 600" width="900" height="600" xmlns="http://www.w3.org/2000/svg" xmlns:xlink="http://www.w3.org/1999/xlink" version="1.1"><path d="M0 13L75 22C150 31 300 49 450 53C600 57 750 47 825 42L900 37L900 0L825 0C750 0 600 0 450 0C300 0 150 0 75 0L0 0Z" fill="#639ce1"></path><path d="M0 43L75 57C150 71 300 99 450 110C600 121 750 115 825 112L900 109L900 35L825 40C750 45 600 55 450 51C300 47 150 29 75 20L0 11Z" fill="#5895de"></path><path d="M0 61L75 74C150 87 300 113 450 126C600 139 750 139 825 139L900 139L900 107L825 110C750 113 600 119 450 108C300 97 150 69 75 55L0 41Z" fill="#4d8edc"></path><path d="M0 97L75 108C150 119 300 141 450 153C600 165 750 167 825 168L900 169L900 137L825 137C750 137 600 137 450 124C300 111 150 85 75 72L0 59Z" fill="#4187d9"></path><path d="M0 133L75 142C150 151 300 169 450 180C600 191 750 195 825 197L900 199L900 167L825 166C750 165 600 163 450 151C300 139 150 117 75 106L0 95Z" fill="#3480d6"></path><path d="M0 163L75 168C150 173 300 183 450 190C600 197 750 201 825 203L900 205L900 197L825 195C750 193 600 189 450 178C300 167 150 149 75 140L0 131Z" fill="#2479d3"></path><path d="M0 199L75 205C150 211 300 223 450 228C600 233 750 231 825 230L900 229L900 203L825 201C750 199 600 195 450 188C300 181 150 171 75 166L0 161Z" fill="#1773cd"></path><path d="M0 259L75 267C150 275 300 291 450 298C600 305 750 303 825 302L900 301L900 227L825 228C750 229 600 231 450 226C300 221 150 209 75 203L0 197Z" fill="#146dc2"></path><path d="M0 289L75 296C150 303 300 317 450 321C600 325 750 319 825 316L900 313L900 299L825 300C750 301 600 303 450 296C300 289 150 273 75 265L0 257Z" fill="#1268b8"></path><path d="M0 403L75 401C150 399 300 395 450 388C600 381 750 371 825 366L900 361L900 311L825 314C750 317 600 323 450 319C300 315 150 301 75 294L0 287Z" fill="#1062ae"></path><path d="M0 409L75 412C150 415 300 421 450 418C600 415 750 403 825 397L900 391L900 359L825 364C750 369 600 379 450 386C300 393 150 397 75 399L0 401Z" fill="#0e5da4"></path><path d="M0 601L75 601C150 601 300 601 450 601C600 601 750 601 825 601L900 601L900 389L825 395C750 401 600 413 450 416C300 419 150 413 75 410L0 407Z" fill="#0c579a"></path></svg>