<svg id="visual" viewBox="0 0 960 300" width="960" height="300" xmlns="http://www.w3.org/2000/svg" xmlns:xlink="http://www.w3.org/1999/xlink" version="1.1"><rect x="0" y="0" width="960" height="300" fill="#000"></rect><path d="M0 75L26.7 77.5C53.3 80 106.7 85 160 85C213.3 85 266.7 80 320 74.2C373.3 68.3 426.7 61.7 480 67.3C533.3 73 586.7 91 640 91.7C693.3 92.3 746.7 75.7 800 66C853.3 56.3 906.7 53.7 933.3 52.3L960 51L960 301L933.3 301C906.7 301 853.3 301 800 301C746.7 301 693.3 301 640 301C586.7 301 533.3 301 480 301C426.7 301 373.3 301 320 301C266.7 301 213.3 301 160 301C106.7 301 53.3 301 26.7 301L0 301Z" fill="#ffffff"></path><path d="M0 99L26.7 102C53.3 105 106.7 111 160 111C213.3 111 266.7 105 320 100.8C373.3 96.7 426.7 94.3 480 92.5C533.3 90.7 586.7 89.3 640 91.8C693.3 94.3 746.7 100.7 800 105C853.3 109.3 906.7 111.7 933.3 112.8L960 114L960 301L933.3 301C906.7 301 853.3 301 800 301C746.7 301 693.3 301 640 301C586.7 301 533.3 301 480 301C426.7 301 373.3 301 320 301C266.7 301 213.3 301 160 301C106.7 301 53.3 301 26.7 301L0 301Z" fill="#e1e6f8"></path><path d="M0 163L26.7 160.5C53.3 158 106.7 153 160 145.8C213.3 138.7 266.7 129.3 320 128.3C373.3 127.3 426.7 134.7 480 136C533.3 137.3 586.7 132.7 640 133.5C693.3 134.3 746.7 140.7 800 146.5C853.3 152.3 906.7 157.7 933.3 160.3L960 163L960 301L933.3 301C906.7 301 853.3 301 800 301C746.7 301 693.3 301 640 301C586.7 301 533.3 301 480 301C426.7 301 373.3 301 320 301C266.7 301 213.3 301 160 301C106.7 301 53.3 301 26.7 301L0 301Z" fill="#c3cef1"></path><path d="M0 159L26.7 163.3C53.3 167.7 106.7 176.3 160 175C213.3 173.7 266.7 162.3 320 162C373.3 161.7 426.7 172.3 480 173.7C533.3 175 586.7 167 640 168.8C693.3 170.7 746.7 182.3 800 182.5C853.3 182.7 906.7 171.3 933.3 165.7L960 160L960 301L933.3 301C906.7 301 853.3 301 800 301C746.7 301 693.3 301 640 301C586.7 301 533.3 301 480 301C426.7 301 373.3 301 320 301C266.7 301 213.3 301 160 301C106.7 301 53.3 301 26.7 301L0 301Z" fill="#a3b7e9"></path><path d="M0 208L26.7 205C53.3 202 106.7 196 160 198.2C213.3 200.3 266.7 210.7 320 212.7C373.3 214.7 426.7 208.3 480 203.8C533.3 199.3 586.7 196.7 640 196.2C693.3 195.7 746.7 197.3 800 195.7C853.3 194 906.7 189 933.3 186.5L960 184L960 301L933.3 301C906.7 301 853.3 301 800 301C746.7 301 693.3 301 640 301C586.7 301 533.3 301 480 301C426.7 301 373.3 301 320 301C266.7 301 213.3 301 160 301C106.7 301 53.3 301 26.7 301L0 301Z" fill="#81a1e2"></path><path d="M0 237L26.7 234.3C53.3 231.7 106.7 226.3 160 228.2C213.3 230 266.7 239 320 243.2C373.3 247.3 426.7 246.7 480 243.3C533.3 240 586.7 234 640 232C693.3 230 746.7 232 800 231.2C853.3 230.3 906.7 226.7 933.3 224.8L960 223L960 301L933.3 301C906.7 301 853.3 301 800 301C746.7 301 693.3 301 640 301C586.7 301 533.3 301 480 301C426.7 301 373.3 301 320 301C266.7 301 213.3 301 160 301C106.7 301 53.3 301 26.7 301L0 301Z" fill="#5a8bda"></path><path d="M0 262L26.7 262.5C53.3 263 106.7 264 160 264.2C213.3 264.3 266.7 263.7 320 263.7C373.3 263.7 426.7 264.3 480 266.5C533.3 268.7 586.7 272.3 640 270.7C693.3 269 746.7 262 800 259.3C853.3 256.7 906.7 258.3 933.3 259.2L960 260L960 301L933.3 301C906.7 301 853.3 301 800 301C746.7 301 693.3 301 640 301C586.7 301 533.3 301 480 301C426.7 301 373.3 301 320 301C266.7 301 213.3 301 160 301C106.7 301 53.3 301 26.7 301L0 301Z" fill="#1976d2"></path></svg>