<svg id="visual" viewBox="0 0 900 600" width="900" height="600" xmlns="http://www.w3.org/2000/svg" xmlns:xlink="http://www.w3.org/1999/xlink" version="1.1"><rect x="0" y="0" width="900" height="600" fill="#000"></rect><path d="M0 405L129 377L257 370L386 424L514 356L643 424L771 403L900 382L900 601L771 601L643 601L514 601L386 601L257 601L129 601L0 601Z" fill="#6eaeee"></path><path d="M0 446L129 467L257 461L386 449L514 457L643 479L771 453L900 398L900 601L771 601L643 601L514 601L386 601L257 601L129 601L0 601Z" fill="#4c9bea"></path><path d="M0 452L129 500L257 484L386 484L514 458L643 488L771 483L900 443L900 601L771 601L643 601L514 601L386 601L257 601L129 601L0 601Z" fill="#1e88e5"></path><path d="M0 497L129 485L257 485L386 524L514 539L643 488L771 487L900 525L900 601L771 601L643 601L514 601L386 601L257 601L129 601L0 601Z" fill="#1676c6"></path><path d="M0 571L129 557L257 564L386 524L514 535L643 533L771 539L900 558L900 601L771 601L643 601L514 601L386 601L257 601L129 601L0 601Z" fill="#1064a8"></path></svg>