<svg xmlns="http://www.w3.org/2000/svg" xmlns:xlink="http://www.w3.org/1999/xlink" width="1080" zoomAndPan="magnify" viewBox="0 0 810 809.999993" height="1080" preserveAspectRatio="xMidYMid meet" version="1.0"><defs><clipPath id="61aee55f05"><path d="M 196.496094 196.496094 L 497 196.496094 L 497 392 L 196.496094 392 Z M 196.496094 196.496094 " clip-rule="nonzero"/></clipPath><clipPath id="f7904c3ad7"><path d="M 196.496094 333 L 613.496094 333 L 613.496094 613.496094 L 196.496094 613.496094 Z M 196.496094 333 " clip-rule="nonzero"/></clipPath><clipPath id="c71933dee5"><path d="M 196.496094 352 L 210 352 L 210 366 L 196.496094 366 Z M 196.496094 352 " clip-rule="nonzero"/></clipPath></defs><g clip-path="url(#61aee55f05)"><path fill="#000000" d="M 203.011719 339.839844 C 203.441406 339.839844 203.863281 339.800781 204.285156 339.714844 C 204.703125 339.632812 205.109375 339.507812 205.507812 339.34375 C 205.902344 339.183594 206.277344 338.980469 206.632812 338.742188 C 206.988281 338.503906 207.316406 338.234375 207.621094 337.933594 C 207.921875 337.628906 208.191406 337.300781 208.429688 336.945312 C 208.667969 336.589844 208.871094 336.214844 209.03125 335.820312 C 209.195312 335.421875 209.320312 335.015625 209.402344 334.597656 C 209.488281 334.175781 209.527344 333.753906 209.527344 333.324219 L 209.527344 229.074219 C 209.527344 228.433594 209.5625 227.796875 209.625 227.160156 C 209.6875 226.523438 209.78125 225.890625 209.90625 225.261719 C 210.035156 224.636719 210.1875 224.015625 210.375 223.402344 C 210.5625 222.792969 210.777344 222.191406 211.023438 221.597656 C 211.269531 221.007812 211.542969 220.429688 211.84375 219.867188 C 212.144531 219.300781 212.472656 218.753906 212.828125 218.222656 C 213.1875 217.6875 213.566406 217.175781 213.972656 216.679688 C 214.378906 216.1875 214.808594 215.714844 215.261719 215.261719 C 215.714844 214.808594 216.1875 214.378906 216.679688 213.972656 C 217.175781 213.566406 217.6875 213.1875 218.222656 212.828125 C 218.753906 212.472656 219.300781 212.144531 219.867188 211.84375 C 220.429688 211.542969 221.007812 211.269531 221.597656 211.023438 C 222.191406 210.777344 222.792969 210.5625 223.402344 210.375 C 224.015625 210.1875 224.636719 210.035156 225.261719 209.90625 C 225.890625 209.78125 226.523438 209.6875 227.160156 209.625 C 227.796875 209.5625 228.433594 209.527344 229.074219 209.527344 L 463.636719 209.527344 C 464.277344 209.527344 464.917969 209.5625 465.554688 209.625 C 466.191406 209.6875 466.820312 209.78125 467.449219 209.90625 C 468.078125 210.035156 468.695312 210.1875 469.308594 210.375 C 469.921875 210.5625 470.523438 210.777344 471.113281 211.023438 C 471.707031 211.269531 472.28125 211.542969 472.847656 211.84375 C 473.410156 212.144531 473.960938 212.472656 474.492188 212.828125 C 475.023438 213.1875 475.539062 213.566406 476.03125 213.972656 C 476.527344 214.378906 477 214.808594 477.453125 215.261719 C 477.90625 215.714844 478.335938 216.1875 478.742188 216.679688 C 479.144531 217.175781 479.527344 217.6875 479.882812 218.222656 C 480.238281 218.753906 480.566406 219.300781 480.871094 219.867188 C 481.171875 220.429688 481.445312 221.007812 481.691406 221.597656 C 481.9375 222.191406 482.152344 222.792969 482.335938 223.402344 C 482.523438 224.015625 482.679688 224.636719 482.804688 225.261719 C 482.929688 225.890625 483.023438 226.523438 483.089844 227.160156 C 483.152344 227.796875 483.183594 228.433594 483.183594 229.074219 L 483.183594 333.324219 L 418.027344 333.324219 C 416.453125 333.328125 414.886719 333.445312 413.332031 333.671875 C 411.773438 333.902344 410.238281 334.242188 408.730469 334.695312 C 407.222656 335.148438 405.753906 335.707031 404.328125 336.371094 C 402.898438 337.035156 401.527344 337.796875 400.210938 338.660156 C 398.894531 339.523438 397.648438 340.476562 396.46875 341.523438 C 395.289062 342.566406 394.191406 343.691406 393.175781 344.894531 C 392.160156 346.097656 391.238281 347.367188 390.40625 348.703125 C 389.574219 350.039062 388.84375 351.429688 388.214844 352.871094 L 248.621094 352.871094 C 248.195312 352.871094 247.769531 352.828125 247.351562 352.746094 C 246.933594 352.664062 246.523438 352.539062 246.128906 352.375 C 245.734375 352.210938 245.359375 352.011719 245.003906 351.773438 C 244.648438 351.535156 244.320312 351.265625 244.015625 350.960938 C 243.714844 350.660156 243.445312 350.332031 243.207031 349.976562 C 242.96875 349.621094 242.769531 349.242188 242.605469 348.847656 C 242.441406 348.453125 242.316406 348.046875 242.234375 347.628906 C 242.148438 347.207031 242.105469 346.785156 242.105469 346.355469 L 242.105469 242.105469 C 242.105469 241.679688 242.148438 241.253906 242.234375 240.835938 C 242.316406 240.417969 242.441406 240.007812 242.605469 239.613281 C 242.769531 239.21875 242.96875 238.84375 243.207031 238.488281 C 243.445312 238.132812 243.714844 237.804688 244.015625 237.5 C 244.320312 237.199219 244.648438 236.929688 245.003906 236.691406 C 245.359375 236.453125 245.734375 236.253906 246.128906 236.089844 C 246.523438 235.925781 246.933594 235.800781 247.351562 235.71875 C 247.769531 235.632812 248.195312 235.589844 248.621094 235.589844 L 444.089844 235.589844 C 444.519531 235.589844 444.941406 235.632812 445.363281 235.71875 C 445.78125 235.800781 446.1875 235.925781 446.582031 236.089844 C 446.976562 236.253906 447.355469 236.453125 447.710938 236.691406 C 448.066406 236.929688 448.394531 237.199219 448.695312 237.5 C 449 237.804688 449.269531 238.132812 449.507812 238.488281 C 449.742188 238.84375 449.945312 239.21875 450.109375 239.613281 C 450.273438 240.007812 450.394531 240.417969 450.480469 240.835938 C 450.5625 241.253906 450.605469 241.679688 450.605469 242.105469 L 450.605469 307.261719 C 450.605469 307.691406 450.648438 308.113281 450.730469 308.535156 C 450.816406 308.953125 450.9375 309.359375 451.101562 309.757812 C 451.265625 310.152344 451.46875 310.527344 451.703125 310.882812 C 451.941406 311.238281 452.210938 311.566406 452.515625 311.871094 C 452.816406 312.171875 453.148438 312.441406 453.503906 312.679688 C 453.859375 312.917969 454.234375 313.117188 454.628906 313.28125 C 455.023438 313.445312 455.429688 313.570312 455.851562 313.652344 C 456.269531 313.738281 456.695312 313.777344 457.121094 313.777344 C 457.550781 313.777344 457.972656 313.738281 458.394531 313.652344 C 458.8125 313.570312 459.21875 313.445312 459.617188 313.28125 C 460.011719 313.117188 460.386719 312.917969 460.742188 312.679688 C 461.097656 312.441406 461.425781 312.171875 461.730469 311.871094 C 462.03125 311.566406 462.300781 311.238281 462.539062 310.882812 C 462.777344 310.527344 462.976562 310.152344 463.140625 309.757812 C 463.304688 309.359375 463.429688 308.953125 463.511719 308.535156 C 463.597656 308.113281 463.636719 307.691406 463.636719 307.261719 L 463.636719 242.105469 C 463.636719 241.464844 463.605469 240.828125 463.542969 240.191406 C 463.476562 239.554688 463.382812 238.921875 463.257812 238.292969 C 463.132812 237.667969 462.976562 237.046875 462.789062 236.433594 C 462.605469 235.824219 462.390625 235.222656 462.144531 234.628906 C 461.898438 234.039062 461.625 233.460938 461.324219 232.898438 C 461.019531 232.332031 460.691406 231.785156 460.335938 231.253906 C 459.980469 230.71875 459.597656 230.207031 459.195312 229.710938 C 458.789062 229.21875 458.359375 228.746094 457.90625 228.292969 C 457.453125 227.839844 456.980469 227.410156 456.484375 227.003906 C 455.988281 226.597656 455.476562 226.21875 454.945312 225.859375 C 454.414062 225.503906 453.863281 225.175781 453.300781 224.875 C 452.734375 224.574219 452.160156 224.300781 451.566406 224.054688 C 450.976562 223.808594 450.375 223.59375 449.761719 223.40625 C 449.148438 223.21875 448.53125 223.066406 447.902344 222.9375 C 447.273438 222.8125 446.644531 222.71875 446.007812 222.65625 C 445.371094 222.59375 444.730469 222.558594 444.089844 222.558594 L 248.621094 222.558594 C 247.980469 222.558594 247.34375 222.59375 246.707031 222.65625 C 246.070312 222.71875 245.4375 222.8125 244.808594 222.9375 C 244.183594 223.066406 243.5625 223.21875 242.949219 223.40625 C 242.339844 223.59375 241.738281 223.808594 241.144531 224.054688 C 240.554688 224.300781 239.976562 224.574219 239.414062 224.875 C 238.847656 225.175781 238.300781 225.503906 237.769531 225.859375 C 237.234375 226.21875 236.722656 226.597656 236.226562 227.003906 C 235.734375 227.410156 235.261719 227.839844 234.808594 228.292969 C 234.355469 228.746094 233.925781 229.21875 233.519531 229.710938 C 233.113281 230.207031 232.734375 230.71875 232.375 231.253906 C 232.019531 231.785156 231.691406 232.332031 231.390625 232.898438 C 231.089844 233.460938 230.816406 234.039062 230.570312 234.628906 C 230.324219 235.222656 230.109375 235.824219 229.921875 236.433594 C 229.734375 237.046875 229.582031 237.667969 229.453125 238.292969 C 229.328125 238.921875 229.234375 239.554688 229.171875 240.191406 C 229.109375 240.828125 229.074219 241.464844 229.074219 242.105469 L 229.074219 346.355469 C 229.074219 346.996094 229.109375 347.636719 229.171875 348.273438 C 229.234375 348.910156 229.328125 349.539062 229.453125 350.167969 C 229.582031 350.796875 229.734375 351.414062 229.921875 352.027344 C 230.109375 352.640625 230.324219 353.242188 230.570312 353.832031 C 230.816406 354.425781 231.089844 355 231.390625 355.566406 C 231.691406 356.128906 232.019531 356.679688 232.375 357.210938 C 232.734375 357.742188 233.113281 358.257812 233.519531 358.75 C 233.925781 359.246094 234.355469 359.71875 234.808594 360.171875 C 235.261719 360.625 235.734375 361.054688 236.226562 361.460938 C 236.722656 361.863281 237.234375 362.246094 237.769531 362.601562 C 238.300781 362.957031 238.847656 363.285156 239.414062 363.589844 C 239.976562 363.890625 240.554688 364.164062 241.144531 364.410156 C 241.738281 364.65625 242.339844 364.871094 242.949219 365.054688 C 243.5625 365.242188 244.183594 365.398438 244.808594 365.523438 C 245.4375 365.648438 246.070312 365.742188 246.707031 365.808594 C 247.34375 365.871094 247.980469 365.902344 248.621094 365.902344 L 385.449219 365.902344 L 385.449219 385.449219 C 385.449219 385.878906 385.492188 386.300781 385.574219 386.722656 C 385.660156 387.140625 385.78125 387.546875 385.945312 387.945312 C 386.109375 388.339844 386.3125 388.714844 386.546875 389.070312 C 386.785156 389.425781 387.054688 389.753906 387.359375 390.058594 C 387.660156 390.359375 387.992188 390.628906 388.347656 390.867188 C 388.703125 391.105469 389.078125 391.304688 389.472656 391.46875 C 389.867188 391.632812 390.273438 391.757812 390.695312 391.839844 C 391.113281 391.925781 391.539062 391.964844 391.964844 391.964844 C 392.394531 391.964844 392.816406 391.925781 393.238281 391.839844 C 393.65625 391.757812 394.0625 391.632812 394.460938 391.46875 C 394.855469 391.304688 395.230469 391.105469 395.585938 390.867188 C 395.941406 390.628906 396.269531 390.359375 396.574219 390.058594 C 396.875 389.753906 397.144531 389.425781 397.382812 389.070312 C 397.621094 388.714844 397.820312 388.339844 397.984375 387.945312 C 398.148438 387.546875 398.273438 387.140625 398.355469 386.722656 C 398.441406 386.300781 398.480469 385.878906 398.480469 385.449219 L 398.480469 365.902344 C 398.480469 365.261719 398.515625 364.625 398.578125 363.988281 C 398.640625 363.351562 398.734375 362.71875 398.859375 362.089844 C 398.988281 361.464844 399.140625 360.84375 399.328125 360.230469 C 399.515625 359.621094 399.730469 359.019531 399.976562 358.425781 C 400.222656 357.835938 400.496094 357.257812 400.796875 356.695312 C 401.097656 356.128906 401.425781 355.582031 401.78125 355.050781 C 402.140625 354.515625 402.519531 354.003906 402.925781 353.507812 C 403.332031 353.015625 403.761719 352.542969 404.214844 352.089844 C 404.667969 351.636719 405.140625 351.207031 405.632812 350.800781 C 406.128906 350.394531 406.640625 350.015625 407.175781 349.65625 C 407.707031 349.300781 408.253906 348.972656 408.820312 348.671875 C 409.382812 348.371094 409.960938 348.097656 410.550781 347.851562 C 411.144531 347.605469 411.746094 347.390625 412.355469 347.203125 C 412.96875 347.015625 413.589844 346.863281 414.214844 346.734375 C 414.84375 346.609375 415.476562 346.515625 416.113281 346.453125 C 416.75 346.390625 417.386719 346.355469 418.027344 346.355469 L 489.699219 346.355469 C 490.128906 346.355469 490.550781 346.316406 490.972656 346.230469 C 491.390625 346.148438 491.796875 346.023438 492.195312 345.859375 C 492.589844 345.699219 492.964844 345.496094 493.320312 345.257812 C 493.675781 345.019531 494.003906 344.75 494.308594 344.449219 C 494.609375 344.144531 494.878906 343.816406 495.117188 343.460938 C 495.355469 343.105469 495.558594 342.730469 495.71875 342.335938 C 495.882812 341.9375 496.007812 341.53125 496.089844 341.113281 C 496.175781 340.691406 496.214844 340.269531 496.214844 339.839844 L 496.214844 229.074219 C 496.214844 228.007812 496.160156 226.945312 496.054688 225.882812 C 495.949219 224.820312 495.792969 223.769531 495.582031 222.722656 C 495.375 221.675781 495.113281 220.644531 494.804688 219.621094 C 494.496094 218.601562 494.136719 217.597656 493.726562 216.613281 C 493.316406 215.628906 492.863281 214.664062 492.359375 213.726562 C 491.855469 212.785156 491.308594 211.871094 490.714844 210.984375 C 490.121094 210.097656 489.488281 209.242188 488.808594 208.417969 C 488.132812 207.59375 487.417969 206.804688 486.664062 206.050781 C 485.910156 205.296875 485.121094 204.582031 484.296875 203.902344 C 483.472656 203.226562 482.613281 202.589844 481.726562 202 C 480.839844 201.40625 479.929688 200.859375 478.988281 200.355469 C 478.046875 199.851562 477.085938 199.394531 476.097656 198.988281 C 475.113281 198.578125 474.109375 198.21875 473.089844 197.910156 C 472.070312 197.597656 471.035156 197.339844 469.992188 197.128906 C 468.945312 196.921875 467.890625 196.761719 466.828125 196.65625 C 465.769531 196.550781 464.703125 196.5 463.636719 196.496094 L 229.074219 196.496094 C 228.007812 196.5 226.945312 196.550781 225.882812 196.65625 C 224.820312 196.761719 223.769531 196.921875 222.722656 197.128906 C 221.675781 197.339844 220.644531 197.597656 219.621094 197.910156 C 218.601562 198.21875 217.597656 198.578125 216.613281 198.988281 C 215.628906 199.394531 214.664062 199.851562 213.726562 200.355469 C 212.785156 200.859375 211.871094 201.40625 210.984375 202 C 210.097656 202.589844 209.242188 203.226562 208.417969 203.902344 C 207.59375 204.582031 206.804688 205.296875 206.050781 206.050781 C 205.296875 206.804688 204.582031 207.59375 203.902344 208.417969 C 203.226562 209.242188 202.589844 210.097656 202 210.984375 C 201.40625 211.871094 200.859375 212.785156 200.355469 213.726562 C 199.851562 214.664062 199.394531 215.628906 198.988281 216.613281 C 198.578125 217.597656 198.21875 218.601562 197.910156 219.621094 C 197.597656 220.644531 197.339844 221.675781 197.128906 222.722656 C 196.921875 223.769531 196.761719 224.820312 196.65625 225.882812 C 196.550781 226.945312 196.5 228.007812 196.496094 229.074219 L 196.496094 333.324219 C 196.496094 333.753906 196.539062 334.175781 196.621094 334.597656 C 196.707031 335.015625 196.828125 335.421875 196.992188 335.820312 C 197.15625 336.214844 197.355469 336.589844 197.59375 336.945312 C 197.832031 337.300781 198.101562 337.628906 198.40625 337.933594 C 198.707031 338.234375 199.035156 338.503906 199.390625 338.742188 C 199.75 338.980469 200.125 339.183594 200.519531 339.34375 C 200.914062 339.507812 201.320312 339.632812 201.742188 339.714844 C 202.160156 339.800781 202.585938 339.839844 203.011719 339.839844 Z M 203.011719 339.839844 " fill-opacity="1" fill-rule="nonzero"/></g><path fill="#000000" d="M 379.519531 283.089844 L 333.519531 255.464844 C 332.53125 254.871094 331.480469 254.417969 330.371094 254.105469 C 329.257812 253.792969 328.125 253.628906 326.972656 253.617188 C 325.820312 253.605469 324.683594 253.742188 323.566406 254.03125 C 322.449219 254.320312 321.390625 254.75 320.386719 255.316406 C 319.382812 255.886719 318.472656 256.578125 317.652344 257.390625 C 316.832031 258.199219 316.128906 259.105469 315.550781 260.101562 C 314.96875 261.097656 314.527344 262.15625 314.230469 263.269531 C 313.929688 264.382812 313.777344 265.515625 313.777344 266.671875 L 313.777344 321.792969 C 313.773438 322.945312 313.917969 324.078125 314.210938 325.191406 C 314.507812 326.304688 314.945312 327.359375 315.523438 328.355469 C 316.101562 329.355469 316.804688 330.257812 317.621094 331.066406 C 318.441406 331.875 319.355469 332.5625 320.359375 333.128906 C 321.367188 333.695312 322.429688 334.121094 323.546875 334.410156 C 324.664062 334.699219 325.800781 334.835938 326.957031 334.824219 C 328.113281 334.8125 329.246094 334.652344 330.359375 334.34375 C 331.472656 334.035156 332.527344 333.585938 333.519531 333 L 379.519531 305.375 C 380 305.085938 380.460938 304.769531 380.898438 304.425781 C 381.335938 304.078125 381.753906 303.703125 382.144531 303.304688 C 382.535156 302.90625 382.898438 302.480469 383.234375 302.035156 C 383.570312 301.589844 383.875 301.121094 384.152344 300.636719 C 384.425781 300.148438 384.671875 299.648438 384.882812 299.128906 C 385.09375 298.613281 385.269531 298.082031 385.410156 297.542969 C 385.554688 297.003906 385.660156 296.457031 385.734375 295.902344 C 385.804688 295.347656 385.839844 294.789062 385.839844 294.230469 C 385.839844 293.671875 385.804688 293.117188 385.734375 292.5625 C 385.660156 292.007812 385.554688 291.460938 385.410156 290.917969 C 385.269531 290.378906 385.09375 289.851562 384.882812 289.332031 C 384.671875 288.816406 384.425781 288.3125 384.152344 287.828125 C 383.875 287.339844 383.570312 286.875 383.234375 286.425781 C 382.898438 285.980469 382.535156 285.558594 382.144531 285.15625 C 381.753906 284.757812 381.335938 284.386719 380.898438 284.039062 C 380.460938 283.691406 380 283.375 379.519531 283.089844 Z M 326.808594 321.792969 L 326.808594 266.671875 L 372.808594 294.230469 Z M 326.808594 321.792969 " fill-opacity="1" fill-rule="nonzero"/><path fill="#000000" d="M 372.453125 385.417969 C 372.453125 385.847656 372.410156 386.273438 372.324219 386.695312 C 372.242188 387.117188 372.117188 387.527344 371.953125 387.921875 C 371.789062 388.320312 371.585938 388.699219 371.347656 389.054688 C 371.109375 389.414062 370.835938 389.742188 370.535156 390.046875 C 370.230469 390.351562 369.898438 390.625 369.542969 390.863281 C 369.183594 391.101562 368.804688 391.304688 368.410156 391.46875 C 368.011719 391.632812 367.601562 391.757812 367.179688 391.839844 C 366.757812 391.925781 366.332031 391.964844 365.902344 391.964844 C 365.472656 391.964844 365.046875 391.925781 364.625 391.839844 C 364.203125 391.757812 363.792969 391.632812 363.398438 391.46875 C 363 391.304688 362.621094 391.101562 362.265625 390.863281 C 361.90625 390.625 361.578125 390.351562 361.273438 390.046875 C 360.96875 389.742188 360.699219 389.414062 360.457031 389.054688 C 360.21875 388.699219 360.019531 388.320312 359.855469 387.921875 C 359.6875 387.527344 359.566406 387.117188 359.480469 386.695312 C 359.398438 386.273438 359.355469 385.847656 359.355469 385.417969 C 359.355469 384.988281 359.398438 384.5625 359.480469 384.140625 C 359.566406 383.71875 359.6875 383.308594 359.855469 382.910156 C 360.019531 382.515625 360.21875 382.136719 360.457031 381.78125 C 360.699219 381.421875 360.96875 381.089844 361.273438 380.789062 C 361.578125 380.484375 361.90625 380.210938 362.265625 379.972656 C 362.621094 379.734375 363 379.53125 363.398438 379.367188 C 363.792969 379.203125 364.203125 379.078125 364.625 378.996094 C 365.046875 378.910156 365.472656 378.871094 365.902344 378.871094 C 366.332031 378.871094 366.757812 378.910156 367.179688 378.996094 C 367.601562 379.078125 368.011719 379.203125 368.410156 379.367188 C 368.804688 379.53125 369.183594 379.734375 369.542969 379.972656 C 369.898438 380.210938 370.230469 380.484375 370.535156 380.789062 C 370.835938 381.089844 371.109375 381.421875 371.347656 381.78125 C 371.585938 382.136719 371.789062 382.515625 371.953125 382.910156 C 372.117188 383.308594 372.242188 383.71875 372.324219 384.140625 C 372.410156 384.5625 372.453125 384.988281 372.453125 385.417969 Z M 372.453125 385.417969 " fill-opacity="1" fill-rule="nonzero"/><path fill="#000000" d="M 242.105469 378.933594 C 241.679688 378.933594 241.253906 378.976562 240.835938 379.058594 C 240.414062 379.144531 240.007812 379.265625 239.613281 379.429688 C 239.21875 379.59375 238.84375 379.796875 238.488281 380.03125 C 238.132812 380.269531 237.800781 380.539062 237.5 380.84375 C 237.195312 381.144531 236.925781 381.476562 236.6875 381.832031 C 236.453125 382.1875 236.25 382.5625 236.085938 382.957031 C 235.921875 383.351562 235.800781 383.757812 235.714844 384.179688 C 235.632812 384.597656 235.589844 385.023438 235.589844 385.449219 C 235.589844 385.878906 235.632812 386.300781 235.714844 386.722656 C 235.800781 387.140625 235.921875 387.546875 236.085938 387.945312 C 236.25 388.339844 236.453125 388.714844 236.6875 389.070312 C 236.925781 389.425781 237.195312 389.753906 237.5 390.058594 C 237.800781 390.359375 238.132812 390.628906 238.488281 390.867188 C 238.84375 391.105469 239.21875 391.304688 239.613281 391.46875 C 240.007812 391.632812 240.414062 391.757812 240.835938 391.839844 C 241.253906 391.925781 241.679688 391.964844 242.105469 391.964844 L 320.292969 391.964844 C 320.722656 391.964844 321.144531 391.925781 321.566406 391.839844 C 321.984375 391.757812 322.390625 391.632812 322.789062 391.46875 C 323.183594 391.304688 323.558594 391.105469 323.914062 390.867188 C 324.269531 390.628906 324.597656 390.359375 324.902344 390.058594 C 325.203125 389.753906 325.472656 389.425781 325.710938 389.070312 C 325.949219 388.714844 326.148438 388.339844 326.3125 387.945312 C 326.476562 387.546875 326.601562 387.140625 326.683594 386.722656 C 326.769531 386.300781 326.808594 385.878906 326.808594 385.449219 C 326.808594 385.023438 326.769531 384.597656 326.683594 384.179688 C 326.601562 383.757812 326.476562 383.351562 326.3125 382.957031 C 326.148438 382.5625 325.949219 382.1875 325.710938 381.832031 C 325.472656 381.476562 325.203125 381.144531 324.902344 380.84375 C 324.597656 380.539062 324.269531 380.269531 323.914062 380.03125 C 323.558594 379.796875 323.183594 379.59375 322.789062 379.429688 C 322.390625 379.265625 321.984375 379.144531 321.566406 379.058594 C 321.144531 378.976562 320.722656 378.933594 320.292969 378.933594 Z M 242.105469 378.933594 " fill-opacity="1" fill-rule="nonzero"/><g clip-path="url(#f7904c3ad7)"><path fill="#000000" d="M 580.917969 333.324219 L 515.761719 333.324219 C 515.335938 333.324219 514.910156 333.367188 514.492188 333.449219 C 514.070312 333.535156 513.664062 333.65625 513.269531 333.820312 C 512.875 333.984375 512.5 334.1875 512.144531 334.421875 C 511.785156 334.660156 511.457031 334.929688 511.15625 335.234375 C 510.851562 335.535156 510.582031 335.867188 510.34375 336.222656 C 510.109375 336.578125 509.90625 336.953125 509.742188 337.347656 C 509.578125 337.742188 509.457031 338.148438 509.371094 338.570312 C 509.289062 338.988281 509.246094 339.414062 509.246094 339.839844 C 509.246094 340.269531 509.289062 340.691406 509.371094 341.113281 C 509.457031 341.53125 509.578125 341.9375 509.742188 342.335938 C 509.90625 342.730469 510.109375 343.105469 510.34375 343.460938 C 510.582031 343.816406 510.851562 344.144531 511.15625 344.449219 C 511.457031 344.75 511.785156 345.019531 512.144531 345.257812 C 512.5 345.496094 512.875 345.695312 513.269531 345.859375 C 513.664062 346.023438 514.070312 346.148438 514.492188 346.230469 C 514.910156 346.316406 515.335938 346.355469 515.761719 346.355469 L 580.917969 346.355469 C 581.558594 346.359375 582.195312 346.390625 582.832031 346.457031 C 583.46875 346.519531 584.101562 346.617188 584.726562 346.742188 C 585.355469 346.867188 585.976562 347.023438 586.585938 347.210938 C 587.199219 347.398438 587.800781 347.613281 588.390625 347.859375 C 588.980469 348.105469 589.558594 348.378906 590.121094 348.679688 C 590.6875 348.984375 591.234375 349.3125 591.765625 349.667969 C 592.296875 350.023438 592.808594 350.40625 593.304688 350.8125 C 593.796875 351.21875 594.273438 351.644531 594.722656 352.097656 C 595.175781 352.550781 595.605469 353.023438 596.011719 353.519531 C 596.417969 354.011719 596.796875 354.527344 597.152344 355.058594 C 597.511719 355.589844 597.839844 356.136719 598.140625 356.699219 C 598.441406 357.265625 598.71875 357.839844 598.960938 358.433594 C 599.207031 359.023438 599.425781 359.625 599.613281 360.234375 C 599.796875 360.847656 599.953125 361.46875 600.082031 362.09375 C 600.207031 362.722656 600.300781 363.351562 600.367188 363.988281 C 600.429688 364.625 600.464844 365.265625 600.464844 365.902344 L 600.464844 470.152344 C 600.464844 470.792969 600.429688 471.429688 600.367188 472.066406 C 600.300781 472.703125 600.207031 473.335938 600.082031 473.960938 C 599.953125 474.589844 599.796875 475.210938 599.613281 475.820312 C 599.425781 476.433594 599.207031 477.035156 598.960938 477.625 C 598.71875 478.214844 598.441406 478.792969 598.140625 479.355469 C 597.839844 479.921875 597.511719 480.46875 597.152344 481 C 596.796875 481.53125 596.417969 482.042969 596.011719 482.539062 C 595.605469 483.03125 595.175781 483.507812 594.722656 483.957031 C 594.273438 484.410156 593.796875 484.839844 593.304688 485.246094 C 592.808594 485.652344 592.296875 486.03125 591.765625 486.386719 C 591.234375 486.746094 590.6875 487.074219 590.121094 487.375 C 589.558594 487.675781 588.980469 487.953125 588.390625 488.195312 C 587.800781 488.441406 587.199219 488.660156 586.585938 488.847656 C 585.976562 489.03125 585.355469 489.1875 584.726562 489.316406 C 584.101562 489.441406 583.46875 489.535156 582.832031 489.601562 C 582.195312 489.664062 581.558594 489.699219 580.917969 489.699219 L 437.574219 489.699219 L 437.574219 483.183594 C 437.574219 482.117188 437.523438 481.054688 437.417969 479.992188 C 437.3125 478.929688 437.15625 477.875 436.949219 476.828125 C 436.738281 475.785156 436.480469 474.75 436.167969 473.730469 C 435.859375 472.707031 435.5 471.703125 435.09375 470.71875 C 434.683594 469.734375 434.226562 468.769531 433.726562 467.828125 C 433.222656 466.890625 432.675781 465.976562 432.082031 465.089844 C 431.488281 464.199219 430.855469 463.34375 430.175781 462.519531 C 429.5 461.695312 428.785156 460.90625 428.03125 460.152344 C 427.277344 459.398438 426.484375 458.683594 425.660156 458.003906 C 424.835938 457.328125 423.980469 456.695312 423.09375 456.101562 C 422.207031 455.507812 421.292969 454.960938 420.351562 454.457031 C 419.410156 453.953125 418.449219 453.5 417.460938 453.089844 C 416.476562 452.679688 415.472656 452.320312 414.453125 452.011719 C 413.433594 451.703125 412.398438 451.441406 411.351562 451.234375 C 410.304688 451.027344 409.25 450.871094 408.191406 450.765625 C 407.128906 450.660156 406.0625 450.605469 404.996094 450.605469 L 398.480469 450.605469 L 398.480469 411.511719 C 398.480469 411.085938 398.4375 410.660156 398.351562 410.242188 C 398.269531 409.824219 398.144531 409.417969 397.980469 409.023438 C 397.816406 408.628906 397.617188 408.253906 397.378906 407.898438 C 397.140625 407.542969 396.871094 407.214844 396.566406 406.910156 C 396.265625 406.609375 395.9375 406.339844 395.582031 406.101562 C 395.226562 405.863281 394.851562 405.664062 394.457031 405.5 C 394.0625 405.335938 393.65625 405.210938 393.234375 405.125 C 392.816406 405.042969 392.394531 405 391.964844 404.996094 L 229.074219 404.996094 C 228.4375 404.996094 227.796875 404.960938 227.160156 404.898438 C 226.523438 404.832031 225.894531 404.738281 225.265625 404.613281 C 224.640625 404.484375 224.019531 404.328125 223.40625 404.144531 C 222.796875 403.957031 222.195312 403.738281 221.605469 403.492188 C 221.011719 403.25 220.4375 402.972656 219.871094 402.671875 C 219.308594 402.371094 218.761719 402.042969 218.230469 401.683594 C 217.699219 401.328125 217.183594 400.949219 216.691406 400.542969 C 216.195312 400.136719 215.722656 399.707031 215.269531 399.253906 C 214.816406 398.804688 214.390625 398.328125 213.984375 397.835938 C 213.578125 397.339844 213.195312 396.828125 212.839844 396.296875 C 212.484375 395.765625 212.15625 395.21875 211.851562 394.652344 C 211.550781 394.089844 211.277344 393.511719 211.03125 392.921875 C 210.785156 392.332031 210.570312 391.730469 210.382812 391.117188 C 210.195312 390.507812 210.039062 389.886719 209.914062 389.257812 C 209.789062 388.632812 209.691406 388 209.628906 387.363281 C 209.5625 386.726562 209.53125 386.089844 209.527344 385.449219 C 209.527344 385.023438 209.488281 384.597656 209.402344 384.179688 C 209.320312 383.757812 209.195312 383.351562 209.03125 382.957031 C 208.867188 382.5625 208.667969 382.1875 208.429688 381.832031 C 208.191406 381.476562 207.921875 381.144531 207.621094 380.84375 C 207.316406 380.539062 206.988281 380.269531 206.632812 380.03125 C 206.277344 379.796875 205.902344 379.59375 205.507812 379.429688 C 205.109375 379.265625 204.703125 379.144531 204.285156 379.058594 C 203.863281 378.976562 203.441406 378.933594 203.011719 378.933594 C 202.585938 378.933594 202.160156 378.976562 201.742188 379.058594 C 201.320312 379.144531 200.914062 379.265625 200.519531 379.429688 C 200.125 379.59375 199.75 379.796875 199.394531 380.03125 C 199.039062 380.269531 198.707031 380.539062 198.40625 380.84375 C 198.101562 381.144531 197.832031 381.476562 197.59375 381.832031 C 197.359375 382.1875 197.15625 382.5625 196.992188 382.957031 C 196.828125 383.351562 196.707031 383.757812 196.621094 384.179688 C 196.539062 384.597656 196.496094 385.023438 196.496094 385.449219 C 196.496094 386.515625 196.550781 387.582031 196.65625 388.644531 C 196.761719 389.703125 196.917969 390.757812 197.125 391.804688 C 197.332031 392.851562 197.59375 393.886719 197.902344 394.90625 C 198.210938 395.925781 198.570312 396.929688 198.980469 397.914062 C 199.386719 398.902344 199.84375 399.863281 200.347656 400.804688 C 200.851562 401.746094 201.398438 402.660156 201.992188 403.546875 C 202.585938 404.433594 203.21875 405.289062 203.894531 406.113281 C 204.574219 406.9375 205.289062 407.730469 206.042969 408.484375 C 206.796875 409.238281 207.585938 409.953125 208.410156 410.628906 C 209.234375 411.308594 210.089844 411.941406 210.980469 412.535156 C 211.867188 413.128906 212.78125 413.675781 213.71875 414.179688 C 214.660156 414.679688 215.625 415.136719 216.609375 415.546875 C 217.59375 415.953125 218.597656 416.3125 219.621094 416.621094 C 220.640625 416.933594 221.675781 417.191406 222.71875 417.402344 C 223.765625 417.609375 224.820312 417.765625 225.882812 417.871094 C 226.945312 417.976562 228.007812 418.027344 229.074219 418.027344 L 385.449219 418.027344 L 385.449219 450.605469 L 229.074219 450.605469 C 228.007812 450.605469 226.945312 450.660156 225.882812 450.765625 C 224.820312 450.871094 223.765625 451.027344 222.71875 451.234375 C 221.675781 451.441406 220.640625 451.703125 219.621094 452.011719 C 218.597656 452.320312 217.59375 452.679688 216.609375 453.089844 C 215.625 453.496094 214.660156 453.953125 213.71875 454.457031 C 212.78125 454.960938 211.867188 455.507812 210.980469 456.101562 C 210.089844 456.695312 209.234375 457.328125 208.410156 458.003906 C 207.585938 458.683594 206.796875 459.398438 206.042969 460.152344 C 205.289062 460.90625 204.574219 461.695312 203.894531 462.519531 C 203.21875 463.34375 202.585938 464.199219 201.992188 465.089844 C 201.398438 465.976562 200.851562 466.890625 200.347656 467.828125 C 199.84375 468.769531 199.386719 469.734375 198.980469 470.71875 C 198.570312 471.703125 198.210938 472.707031 197.902344 473.730469 C 197.59375 474.75 197.332031 475.785156 197.125 476.828125 C 196.917969 477.875 196.761719 478.929688 196.65625 479.992188 C 196.550781 481.054688 196.496094 482.117188 196.496094 483.183594 L 196.496094 580.917969 C 196.496094 581.984375 196.550781 583.050781 196.65625 584.113281 C 196.761719 585.171875 196.917969 586.226562 197.125 587.273438 C 197.332031 588.320312 197.59375 589.355469 197.902344 590.375 C 198.210938 591.394531 198.570312 592.398438 198.980469 593.382812 C 199.386719 594.371094 199.84375 595.332031 200.347656 596.273438 C 200.851562 597.214844 201.398438 598.128906 201.992188 599.015625 C 202.585938 599.902344 203.21875 600.757812 203.894531 601.582031 C 204.574219 602.40625 205.289062 603.199219 206.042969 603.953125 C 206.796875 604.707031 207.585938 605.421875 208.410156 606.097656 C 209.234375 606.777344 210.089844 607.410156 210.980469 608.003906 C 211.867188 608.597656 212.78125 609.144531 213.71875 609.648438 C 214.660156 610.148438 215.625 610.605469 216.609375 611.015625 C 217.59375 611.421875 218.597656 611.78125 219.621094 612.089844 C 220.640625 612.402344 221.675781 612.660156 222.71875 612.871094 C 223.765625 613.078125 224.820312 613.234375 225.882812 613.339844 C 226.945312 613.445312 228.007812 613.496094 229.074219 613.496094 L 404.996094 613.496094 C 406.0625 613.496094 407.128906 613.445312 408.191406 613.339844 C 409.25 613.234375 410.304688 613.078125 411.351562 612.871094 C 412.398438 612.660156 413.433594 612.402344 414.453125 612.089844 C 415.472656 611.78125 416.476562 611.421875 417.460938 611.015625 C 418.449219 610.605469 419.410156 610.148438 420.351562 609.648438 C 421.292969 609.144531 422.207031 608.597656 423.09375 608.003906 C 423.980469 607.410156 424.835938 606.777344 425.660156 606.097656 C 426.484375 605.421875 427.277344 604.707031 428.03125 603.953125 C 428.785156 603.199219 429.5 602.40625 430.175781 601.582031 C 430.855469 600.757812 431.488281 599.902344 432.082031 599.015625 C 432.675781 598.128906 433.222656 597.214844 433.726562 596.273438 C 434.226562 595.332031 434.683594 594.371094 435.09375 593.382812 C 435.5 592.398438 435.859375 591.394531 436.167969 590.375 C 436.480469 589.355469 436.738281 588.320312 436.949219 587.273438 C 437.15625 586.226562 437.3125 585.171875 437.417969 584.113281 C 437.523438 583.050781 437.574219 581.984375 437.574219 580.917969 L 437.574219 528.792969 C 437.574219 528.367188 437.535156 527.941406 437.449219 527.523438 C 437.367188 527.101562 437.242188 526.695312 437.078125 526.300781 C 436.914062 525.90625 436.714844 525.53125 436.476562 525.175781 C 436.238281 524.820312 435.96875 524.488281 435.667969 524.1875 C 435.363281 523.882812 435.035156 523.613281 434.679688 523.375 C 434.324219 523.140625 433.949219 522.9375 433.554688 522.773438 C 433.15625 522.609375 432.75 522.488281 432.332031 522.402344 C 431.910156 522.320312 431.488281 522.277344 431.058594 522.277344 C 430.632812 522.277344 430.207031 522.320312 429.789062 522.402344 C 429.367188 522.488281 428.960938 522.609375 428.566406 522.773438 C 428.171875 522.9375 427.796875 523.140625 427.441406 523.375 C 427.085938 523.613281 426.753906 523.882812 426.453125 524.1875 C 426.148438 524.488281 425.878906 524.820312 425.640625 525.175781 C 425.40625 525.53125 425.203125 525.90625 425.039062 526.300781 C 424.875 526.695312 424.753906 527.101562 424.667969 527.523438 C 424.585938 527.941406 424.542969 528.367188 424.542969 528.792969 L 424.542969 552.183594 L 403.109375 530.683594 C 402.800781 530.386719 402.464844 530.125 402.105469 529.894531 C 401.746094 529.664062 401.371094 529.46875 400.972656 529.308594 C 400.578125 529.148438 400.171875 529.027344 399.75 528.949219 C 399.332031 528.867188 398.910156 528.828125 398.480469 528.828125 C 398.054688 528.828125 397.632812 528.867188 397.210938 528.949219 C 396.792969 529.027344 396.386719 529.148438 395.988281 529.308594 C 395.59375 529.46875 395.214844 529.664062 394.855469 529.894531 C 394.496094 530.125 394.164062 530.386719 393.855469 530.683594 L 349.550781 575.121094 L 292.148438 517.652344 C 291.84375 517.351562 291.511719 517.082031 291.152344 516.84375 C 290.796875 516.605469 290.417969 516.40625 290.023438 516.242188 C 289.625 516.078125 289.214844 515.953125 288.796875 515.871094 C 288.375 515.789062 287.949219 515.746094 287.519531 515.746094 C 287.089844 515.746094 286.667969 515.789062 286.246094 515.871094 C 285.824219 515.953125 285.414062 516.078125 285.019531 516.242188 C 284.621094 516.40625 284.246094 516.605469 283.886719 516.84375 C 283.53125 517.082031 283.199219 517.351562 282.894531 517.652344 L 211.417969 589.195312 C 210.179688 586.574219 209.550781 583.816406 209.527344 580.917969 L 209.527344 483.183594 C 209.53125 482.546875 209.5625 481.90625 209.628906 481.269531 C 209.691406 480.632812 209.789062 480.003906 209.914062 479.375 C 210.039062 478.75 210.195312 478.128906 210.382812 477.515625 C 210.570312 476.90625 210.785156 476.304688 211.03125 475.714844 C 211.277344 475.121094 211.550781 474.546875 211.851562 473.980469 C 212.15625 473.417969 212.484375 472.871094 212.839844 472.339844 C 213.195312 471.808594 213.578125 471.292969 213.984375 470.800781 C 214.390625 470.304688 214.816406 469.832031 215.269531 469.378906 C 215.722656 468.925781 216.195312 468.5 216.691406 468.09375 C 217.183594 467.6875 217.699219 467.304688 218.230469 466.949219 C 218.761719 466.59375 219.308594 466.265625 219.871094 465.960938 C 220.4375 465.660156 221.011719 465.386719 221.605469 465.140625 C 222.195312 464.894531 222.796875 464.679688 223.40625 464.492188 C 224.019531 464.304688 224.640625 464.148438 225.265625 464.023438 C 225.894531 463.898438 226.523438 463.800781 227.160156 463.738281 C 227.796875 463.671875 228.4375 463.640625 229.074219 463.636719 L 404.996094 463.636719 C 405.636719 463.640625 406.273438 463.671875 406.910156 463.738281 C 407.546875 463.800781 408.179688 463.898438 408.804688 464.023438 C 409.433594 464.148438 410.054688 464.304688 410.664062 464.492188 C 411.277344 464.679688 411.878906 464.894531 412.46875 465.140625 C 413.058594 465.386719 413.636719 465.660156 414.199219 465.960938 C 414.765625 466.265625 415.3125 466.59375 415.84375 466.949219 C 416.375 467.304688 416.886719 467.6875 417.382812 468.09375 C 417.875 468.5 418.351562 468.925781 418.800781 469.378906 C 419.253906 469.832031 419.683594 470.304688 420.089844 470.800781 C 420.496094 471.292969 420.875 471.808594 421.230469 472.339844 C 421.589844 472.871094 421.917969 473.417969 422.21875 473.980469 C 422.519531 474.546875 422.796875 475.121094 423.039062 475.714844 C 423.285156 476.304688 423.503906 476.90625 423.691406 477.515625 C 423.875 478.128906 424.03125 478.75 424.160156 479.375 C 424.285156 480.003906 424.378906 480.632812 424.445312 481.269531 C 424.507812 481.90625 424.542969 482.546875 424.542969 483.183594 L 424.542969 496.214844 C 424.546875 496.644531 424.589844 497.066406 424.671875 497.484375 C 424.757812 497.90625 424.882812 498.3125 425.046875 498.707031 C 425.210938 499.101562 425.410156 499.476562 425.648438 499.832031 C 425.886719 500.1875 426.15625 500.515625 426.457031 500.816406 C 426.761719 501.121094 427.089844 501.390625 427.445312 501.628906 C 427.800781 501.867188 428.175781 502.066406 428.570312 502.230469 C 428.964844 502.394531 429.371094 502.519531 429.789062 502.601562 C 430.207031 502.6875 430.632812 502.730469 431.058594 502.730469 L 580.917969 502.730469 C 581.984375 502.730469 583.050781 502.679688 584.113281 502.574219 C 585.171875 502.46875 586.226562 502.3125 587.273438 502.105469 C 588.320312 501.894531 589.355469 501.636719 590.375 501.324219 C 591.394531 501.015625 592.398438 500.65625 593.382812 500.25 C 594.371094 499.839844 595.332031 499.382812 596.273438 498.882812 C 597.214844 498.378906 598.128906 497.832031 599.015625 497.238281 C 599.902344 496.644531 600.757812 496.011719 601.582031 495.332031 C 602.40625 494.65625 603.199219 493.941406 603.953125 493.1875 C 604.707031 492.433594 605.421875 491.640625 606.097656 490.816406 C 606.777344 489.992188 607.410156 489.136719 608.003906 488.25 C 608.597656 487.363281 609.144531 486.449219 609.648438 485.507812 C 610.148438 484.566406 610.605469 483.605469 611.015625 482.617188 C 611.421875 481.632812 611.78125 480.628906 612.089844 479.609375 C 612.402344 478.589844 612.660156 477.554688 612.871094 476.507812 C 613.078125 475.460938 613.234375 474.40625 613.339844 473.347656 C 613.445312 472.285156 613.496094 471.21875 613.496094 470.152344 L 613.496094 365.902344 C 613.496094 364.835938 613.445312 363.773438 613.339844 362.710938 C 613.234375 361.648438 613.078125 360.59375 612.871094 359.546875 C 612.660156 358.503906 612.402344 357.46875 612.089844 356.449219 C 611.78125 355.425781 611.421875 354.421875 611.015625 353.4375 C 610.605469 352.453125 610.148438 351.488281 609.648438 350.546875 C 609.144531 349.609375 608.597656 348.695312 608.003906 347.808594 C 607.410156 346.917969 606.777344 346.0625 606.097656 345.238281 C 605.421875 344.414062 604.707031 343.625 603.953125 342.871094 C 603.199219 342.117188 602.40625 341.402344 601.582031 340.722656 C 600.757812 340.046875 599.902344 339.414062 599.015625 338.820312 C 598.128906 338.226562 597.214844 337.679688 596.273438 337.175781 C 595.332031 336.671875 594.371094 336.214844 593.382812 335.808594 C 592.398438 335.398438 591.394531 335.039062 590.375 334.730469 C 589.355469 334.421875 588.320312 334.160156 587.273438 333.953125 C 586.226562 333.746094 585.171875 333.589844 584.113281 333.484375 C 583.050781 333.378906 581.984375 333.324219 580.917969 333.324219 Z M 398.480469 544.496094 L 424.542969 570.558594 L 424.542969 580.917969 C 424.542969 581.558594 424.507812 582.195312 424.445312 582.832031 C 424.378906 583.46875 424.285156 584.101562 424.160156 584.726562 C 424.03125 585.355469 423.875 585.976562 423.691406 586.585938 C 423.503906 587.199219 423.285156 587.800781 423.039062 588.390625 C 422.796875 588.980469 422.519531 589.558594 422.21875 590.121094 C 421.917969 590.6875 421.589844 591.234375 421.230469 591.765625 C 420.875 592.296875 420.496094 592.808594 420.089844 593.304688 C 419.683594 593.796875 419.253906 594.273438 418.800781 594.722656 C 418.351562 595.175781 417.875 595.605469 417.382812 596.011719 C 416.886719 596.417969 416.375 596.796875 415.84375 597.152344 C 415.3125 597.511719 414.765625 597.839844 414.199219 598.140625 C 413.636719 598.441406 413.058594 598.71875 412.46875 598.960938 C 411.878906 599.207031 411.277344 599.425781 410.664062 599.613281 C 410.054688 599.796875 409.433594 599.953125 408.804688 600.082031 C 408.179688 600.207031 407.546875 600.300781 406.910156 600.367188 C 406.273438 600.429688 405.636719 600.464844 404.996094 600.464844 L 374.894531 600.464844 L 358.734375 584.308594 Z M 287.519531 531.464844 L 356.519531 600.464844 L 229.074219 600.464844 C 226.097656 600.445312 223.273438 599.773438 220.605469 598.445312 Z M 287.519531 531.464844 " fill-opacity="1" fill-rule="nonzero"/></g><path fill="#000000" d="M 540.195312 371.375 C 538.945312 370.464844 537.605469 369.710938 536.171875 369.121094 C 534.738281 368.53125 533.257812 368.121094 531.726562 367.886719 C 530.195312 367.65625 528.660156 367.609375 527.117188 367.746094 C 525.574219 367.886719 524.070312 368.203125 522.605469 368.707031 L 462.59375 388.707031 L 444.089844 388.707031 C 443.453125 388.710938 442.8125 388.742188 442.175781 388.808594 C 441.539062 388.871094 440.910156 388.96875 440.28125 389.09375 C 439.65625 389.21875 439.035156 389.375 438.421875 389.5625 C 437.8125 389.75 437.210938 389.964844 436.621094 390.210938 C 436.027344 390.457031 435.453125 390.730469 434.886719 391.03125 C 434.324219 391.335938 433.777344 391.664062 433.246094 392.019531 C 432.714844 392.375 432.199219 392.757812 431.707031 393.164062 C 431.210938 393.570312 430.738281 393.996094 430.285156 394.449219 C 429.832031 394.902344 429.40625 395.375 429 395.871094 C 428.59375 396.363281 428.210938 396.878906 427.855469 397.410156 C 427.5 397.941406 427.171875 398.488281 426.867188 399.050781 C 426.566406 399.617188 426.292969 400.191406 426.046875 400.785156 C 425.800781 401.375 425.585938 401.976562 425.398438 402.585938 C 425.210938 403.199219 425.054688 403.820312 424.929688 404.445312 C 424.804688 405.074219 424.707031 405.703125 424.644531 406.339844 C 424.578125 406.976562 424.546875 407.617188 424.542969 408.253906 L 424.542969 414.769531 C 424.546875 415.875 424.644531 416.972656 424.832031 418.0625 C 425.023438 419.152344 425.300781 420.21875 425.671875 421.261719 C 426.039062 422.304688 426.496094 423.308594 427.035156 424.273438 C 427.574219 425.238281 428.1875 426.152344 428.882812 427.015625 C 429.578125 427.875 430.335938 428.671875 431.167969 429.40625 C 431.996094 430.136719 432.878906 430.792969 433.820312 431.378906 C 434.757812 431.960938 435.742188 432.460938 436.765625 432.878906 C 437.789062 433.292969 438.839844 433.621094 439.921875 433.863281 L 442.722656 456.339844 C 442.875 457.507812 443.132812 458.65625 443.492188 459.777344 C 443.851562 460.902344 444.308594 461.984375 444.863281 463.023438 C 445.417969 464.066406 446.0625 465.046875 446.792969 465.972656 C 447.523438 466.898438 448.332031 467.75 449.21875 468.527344 C 450.105469 469.308594 451.054688 470 452.0625 470.609375 C 453.074219 471.214844 454.132812 471.726562 455.234375 472.144531 C 456.339844 472.5625 457.46875 472.875 458.628906 473.089844 C 459.789062 473.300781 460.960938 473.410156 462.140625 473.410156 L 470.152344 473.410156 C 470.582031 473.410156 471.003906 473.367188 471.421875 473.28125 C 471.84375 473.199219 472.25 473.074219 472.644531 472.910156 C 473.039062 472.746094 473.414062 472.546875 473.769531 472.308594 C 474.125 472.070312 474.453125 471.800781 474.753906 471.496094 C 475.058594 471.195312 475.328125 470.867188 475.566406 470.511719 C 475.804688 470.15625 476.003906 469.78125 476.167969 469.386719 C 476.332031 468.992188 476.457031 468.585938 476.539062 468.164062 C 476.625 467.746094 476.667969 467.324219 476.667969 466.894531 L 476.667969 439.007812 L 522.605469 454.320312 C 524.074219 454.792969 525.578125 455.09375 527.117188 455.21875 C 528.65625 455.34375 530.1875 455.289062 531.714844 455.058594 C 533.242188 454.828125 534.722656 454.421875 536.152344 453.847656 C 537.585938 453.269531 538.933594 452.539062 540.195312 451.648438 C 541.464844 450.753906 542.605469 449.722656 543.621094 448.554688 C 544.640625 447.382812 545.503906 446.109375 546.210938 444.730469 C 546.921875 443.355469 547.457031 441.910156 547.816406 440.402344 C 548.175781 438.894531 548.351562 437.367188 548.339844 435.816406 L 548.339844 387.210938 C 548.351562 385.660156 548.175781 384.128906 547.816406 382.621094 C 547.457031 381.113281 546.921875 379.671875 546.210938 378.292969 C 545.503906 376.914062 544.640625 375.640625 543.621094 374.472656 C 542.605469 373.300781 541.464844 372.269531 540.195312 371.375 Z M 444.089844 421.285156 C 443.664062 421.285156 443.238281 421.242188 442.820312 421.15625 C 442.402344 421.074219 441.996094 420.949219 441.601562 420.785156 C 441.207031 420.621094 440.832031 420.421875 440.476562 420.183594 C 440.121094 419.945312 439.792969 419.675781 439.488281 419.371094 C 439.1875 419.070312 438.917969 418.742188 438.679688 418.386719 C 438.441406 418.03125 438.242188 417.65625 438.078125 417.261719 C 437.914062 416.867188 437.789062 416.460938 437.703125 416.039062 C 437.621094 415.621094 437.578125 415.199219 437.574219 414.769531 L 437.574219 408.253906 C 437.578125 407.828125 437.621094 407.402344 437.703125 406.984375 C 437.789062 406.566406 437.914062 406.160156 438.078125 405.765625 C 438.242188 405.371094 438.441406 404.996094 438.679688 404.640625 C 438.917969 404.285156 439.1875 403.957031 439.488281 403.652344 C 439.792969 403.351562 440.121094 403.082031 440.476562 402.84375 C 440.832031 402.605469 441.207031 402.40625 441.601562 402.242188 C 441.996094 402.078125 442.402344 401.953125 442.820312 401.867188 C 443.238281 401.785156 443.664062 401.742188 444.089844 401.738281 L 457.121094 401.738281 L 457.121094 421.285156 Z M 463.636719 460.378906 C 459.859375 460.378906 456.210938 458.945312 455.625 454.710938 L 453.082031 434.316406 L 462.59375 434.316406 L 463.636719 434.644531 Z M 535.308594 435.816406 C 535.3125 436.867188 535.074219 437.859375 534.589844 438.792969 C 534.105469 439.726562 533.433594 440.492188 532.574219 441.09375 C 531.726562 441.714844 530.785156 442.101562 529.746094 442.253906 C 528.707031 442.402344 527.695312 442.296875 526.710938 441.941406 L 470.152344 423.109375 L 470.152344 399.914062 L 526.710938 381.085938 C 527.695312 380.726562 528.707031 380.621094 529.746094 380.773438 C 530.785156 380.921875 531.726562 381.308594 532.574219 381.933594 C 533.433594 382.535156 534.105469 383.300781 534.589844 384.234375 C 535.074219 385.167969 535.3125 386.160156 535.308594 387.210938 Z M 535.308594 435.816406 " fill-opacity="1" fill-rule="nonzero"/><path fill="#000000" d="M 574.402344 424.542969 L 574.402344 398.480469 C 574.402344 398.054688 574.363281 397.628906 574.277344 397.210938 C 574.195312 396.789062 574.070312 396.382812 573.90625 395.988281 C 573.742188 395.59375 573.542969 395.21875 573.304688 394.863281 C 573.066406 394.507812 572.796875 394.175781 572.496094 393.875 C 572.191406 393.570312 571.863281 393.300781 571.507812 393.0625 C 571.152344 392.828125 570.777344 392.625 570.382812 392.460938 C 569.984375 392.296875 569.578125 392.175781 569.160156 392.089844 C 568.738281 392.007812 568.316406 391.964844 567.886719 391.964844 C 567.460938 391.964844 567.035156 392.007812 566.617188 392.089844 C 566.195312 392.175781 565.789062 392.296875 565.394531 392.460938 C 565 392.625 564.625 392.828125 564.269531 393.0625 C 563.910156 393.300781 563.582031 393.570312 563.28125 393.875 C 562.976562 394.175781 562.707031 394.507812 562.46875 394.863281 C 562.234375 395.21875 562.03125 395.59375 561.867188 395.988281 C 561.703125 396.382812 561.582031 396.789062 561.496094 397.210938 C 561.414062 397.628906 561.371094 398.054688 561.371094 398.480469 L 561.371094 424.542969 C 561.371094 424.972656 561.414062 425.394531 561.496094 425.816406 C 561.582031 426.234375 561.703125 426.640625 561.867188 427.039062 C 562.03125 427.433594 562.234375 427.808594 562.46875 428.164062 C 562.707031 428.519531 562.976562 428.847656 563.28125 429.152344 C 563.582031 429.453125 563.910156 429.722656 564.269531 429.960938 C 564.625 430.199219 565 430.398438 565.394531 430.5625 C 565.789062 430.726562 566.195312 430.851562 566.617188 430.933594 C 567.035156 431.019531 567.460938 431.058594 567.886719 431.058594 C 568.316406 431.058594 568.738281 431.019531 569.160156 430.933594 C 569.578125 430.851562 569.984375 430.726562 570.382812 430.5625 C 570.777344 430.398438 571.152344 430.199219 571.507812 429.960938 C 571.863281 429.722656 572.191406 429.453125 572.496094 429.152344 C 572.796875 428.847656 573.066406 428.519531 573.304688 428.164062 C 573.542969 427.808594 573.742188 427.433594 573.90625 427.039062 C 574.070312 426.640625 574.195312 426.234375 574.277344 425.816406 C 574.363281 425.394531 574.402344 424.972656 574.402344 424.542969 Z M 574.402344 424.542969 " fill-opacity="1" fill-rule="nonzero"/><path fill="#000000" d="M 359.386719 476.667969 C 358.746094 476.667969 358.109375 476.699219 357.472656 476.761719 C 356.835938 476.824219 356.203125 476.917969 355.574219 477.042969 C 354.945312 477.167969 354.328125 477.324219 353.714844 477.511719 C 353.101562 477.695312 352.5 477.910156 351.90625 478.15625 C 351.316406 478.402344 350.738281 478.675781 350.171875 478.976562 C 349.609375 479.277344 349.058594 479.609375 348.527344 479.964844 C 347.996094 480.320312 347.480469 480.699219 346.988281 481.105469 C 346.492188 481.511719 346.019531 481.941406 345.566406 482.394531 C 345.113281 482.847656 344.683594 483.320312 344.277344 483.816406 C 343.871094 484.308594 343.492188 484.824219 343.136719 485.355469 C 342.78125 485.886719 342.449219 486.4375 342.148438 487 C 341.847656 487.566406 341.574219 488.144531 341.328125 488.734375 C 341.082031 489.328125 340.867188 489.929688 340.683594 490.542969 C 340.496094 491.15625 340.339844 491.773438 340.214844 492.402344 C 340.089844 493.03125 339.996094 493.664062 339.933594 494.300781 C 339.871094 494.9375 339.839844 495.574219 339.839844 496.214844 C 339.839844 496.855469 339.871094 497.496094 339.933594 498.132812 C 339.996094 498.769531 340.089844 499.402344 340.214844 500.027344 C 340.339844 500.65625 340.496094 501.277344 340.683594 501.890625 C 340.867188 502.503906 341.082031 503.105469 341.328125 503.695312 C 341.574219 504.289062 341.847656 504.867188 342.148438 505.429688 C 342.449219 505.996094 342.78125 506.542969 343.136719 507.074219 C 343.492188 507.609375 343.871094 508.121094 344.277344 508.617188 C 344.683594 509.109375 345.113281 509.585938 345.566406 510.039062 C 346.019531 510.492188 346.492188 510.917969 346.988281 511.324219 C 347.480469 511.730469 347.996094 512.113281 348.527344 512.46875 C 349.058594 512.824219 349.609375 513.152344 350.171875 513.453125 C 350.738281 513.757812 351.316406 514.03125 351.90625 514.273438 C 352.5 514.519531 353.101562 514.734375 353.714844 514.921875 C 354.328125 515.105469 354.945312 515.261719 355.574219 515.386719 C 356.203125 515.511719 356.835938 515.605469 357.472656 515.667969 C 358.109375 515.730469 358.746094 515.761719 359.386719 515.761719 C 360.027344 515.761719 360.667969 515.730469 361.304688 515.667969 C 361.941406 515.605469 362.574219 515.511719 363.199219 515.386719 C 363.828125 515.261719 364.449219 515.105469 365.0625 514.921875 C 365.675781 514.734375 366.277344 514.519531 366.867188 514.273438 C 367.460938 514.03125 368.039062 513.757812 368.601562 513.453125 C 369.167969 513.152344 369.714844 512.824219 370.246094 512.46875 C 370.78125 512.113281 371.292969 511.730469 371.789062 511.324219 C 372.28125 510.917969 372.757812 510.492188 373.210938 510.039062 C 373.664062 509.585938 374.089844 509.109375 374.496094 508.617188 C 374.902344 508.121094 375.285156 507.609375 375.640625 507.074219 C 375.996094 506.542969 376.324219 505.996094 376.625 505.429688 C 376.929688 504.867188 377.203125 504.289062 377.445312 503.695312 C 377.691406 503.105469 377.90625 502.503906 378.09375 501.890625 C 378.277344 501.277344 378.433594 500.65625 378.558594 500.027344 C 378.683594 499.402344 378.777344 498.769531 378.839844 498.132812 C 378.902344 497.496094 378.933594 496.855469 378.933594 496.214844 C 378.933594 495.578125 378.898438 494.9375 378.835938 494.300781 C 378.769531 493.664062 378.675781 493.035156 378.550781 492.40625 C 378.421875 491.78125 378.265625 491.160156 378.082031 490.546875 C 377.894531 489.9375 377.675781 489.335938 377.429688 488.746094 C 377.1875 488.152344 376.910156 487.578125 376.609375 487.011719 C 376.308594 486.449219 375.980469 485.902344 375.621094 485.371094 C 375.265625 484.839844 374.886719 484.324219 374.480469 483.832031 C 374.074219 483.335938 373.644531 482.863281 373.191406 482.410156 C 372.742188 481.957031 372.265625 481.53125 371.773438 481.125 C 371.277344 480.71875 370.765625 480.335938 370.234375 479.980469 C 369.703125 479.625 369.15625 479.296875 368.589844 478.992188 C 368.027344 478.691406 367.449219 478.417969 366.859375 478.171875 C 366.269531 477.925781 365.667969 477.710938 365.054688 477.523438 C 364.445312 477.335938 363.824219 477.179688 363.195312 477.054688 C 362.570312 476.929688 361.9375 476.832031 361.300781 476.769531 C 360.664062 476.703125 360.027344 476.671875 359.386719 476.667969 Z M 359.386719 502.730469 C 358.960938 502.730469 358.535156 502.691406 358.117188 502.605469 C 357.695312 502.523438 357.289062 502.398438 356.894531 502.234375 C 356.5 502.070312 356.125 501.871094 355.769531 501.632812 C 355.414062 501.394531 355.082031 501.125 354.78125 500.824219 C 354.476562 500.519531 354.207031 500.191406 353.96875 499.835938 C 353.734375 499.480469 353.53125 499.105469 353.367188 498.710938 C 353.203125 498.3125 353.082031 497.90625 352.996094 497.488281 C 352.914062 497.066406 352.871094 496.644531 352.871094 496.214844 C 352.871094 495.789062 352.914062 495.363281 352.996094 494.945312 C 353.082031 494.523438 353.203125 494.117188 353.367188 493.722656 C 353.53125 493.328125 353.734375 492.953125 353.96875 492.597656 C 354.207031 492.242188 354.476562 491.910156 354.78125 491.609375 C 355.082031 491.304688 355.414062 491.035156 355.769531 490.796875 C 356.125 490.5625 356.5 490.359375 356.894531 490.195312 C 357.289062 490.03125 357.695312 489.910156 358.117188 489.824219 C 358.535156 489.742188 358.960938 489.699219 359.386719 489.699219 C 359.816406 489.699219 360.238281 489.742188 360.660156 489.824219 C 361.078125 489.910156 361.484375 490.03125 361.882812 490.195312 C 362.277344 490.359375 362.652344 490.5625 363.007812 490.796875 C 363.363281 491.035156 363.691406 491.304688 363.996094 491.609375 C 364.296875 491.910156 364.566406 492.242188 364.804688 492.597656 C 365.042969 492.953125 365.242188 493.328125 365.40625 493.722656 C 365.570312 494.117188 365.695312 494.523438 365.777344 494.945312 C 365.863281 495.363281 365.902344 495.789062 365.902344 496.214844 C 365.902344 496.644531 365.859375 497.066406 365.773438 497.484375 C 365.691406 497.90625 365.566406 498.3125 365.402344 498.707031 C 365.238281 499.101562 365.039062 499.476562 364.800781 499.832031 C 364.5625 500.1875 364.292969 500.515625 363.988281 500.816406 C 363.6875 501.121094 363.359375 501.390625 363.003906 501.628906 C 362.648438 501.867188 362.273438 502.066406 361.878906 502.230469 C 361.484375 502.394531 361.078125 502.519531 360.65625 502.601562 C 360.238281 502.6875 359.816406 502.730469 359.386719 502.730469 Z M 359.386719 502.730469 " fill-opacity="1" fill-rule="nonzero"/><g clip-path="url(#c71933dee5)"><path fill="#000000" d="M 209.59375 359.421875 C 209.59375 359.851562 209.550781 360.277344 209.46875 360.699219 C 209.382812 361.121094 209.257812 361.527344 209.09375 361.925781 C 208.929688 362.324219 208.730469 362.699219 208.488281 363.058594 C 208.25 363.414062 207.980469 363.746094 207.675781 364.050781 C 207.371094 364.355469 207.039062 364.625 206.683594 364.863281 C 206.324219 365.105469 205.949219 365.304688 205.550781 365.46875 C 205.152344 365.632812 204.746094 365.757812 204.324219 365.84375 C 203.902344 365.925781 203.476562 365.96875 203.046875 365.96875 C 202.617188 365.96875 202.191406 365.925781 201.769531 365.84375 C 201.347656 365.757812 200.9375 365.632812 200.539062 365.46875 C 200.140625 365.304688 199.765625 365.105469 199.40625 364.863281 C 199.050781 364.625 198.71875 364.355469 198.414062 364.050781 C 198.109375 363.746094 197.839844 363.414062 197.601562 363.058594 C 197.363281 362.699219 197.160156 362.324219 196.996094 361.925781 C 196.832031 361.527344 196.707031 361.121094 196.621094 360.699219 C 196.539062 360.277344 196.496094 359.851562 196.496094 359.421875 C 196.496094 358.992188 196.539062 358.566406 196.621094 358.144531 C 196.707031 357.722656 196.832031 357.3125 196.996094 356.914062 C 197.160156 356.515625 197.363281 356.140625 197.601562 355.78125 C 197.839844 355.425781 198.109375 355.09375 198.414062 354.789062 C 198.71875 354.484375 199.050781 354.214844 199.40625 353.976562 C 199.765625 353.738281 200.140625 353.535156 200.539062 353.371094 C 200.9375 353.207031 201.347656 353.082031 201.769531 352.996094 C 202.191406 352.914062 202.617188 352.871094 203.046875 352.871094 C 203.476562 352.871094 203.902344 352.914062 204.324219 352.996094 C 204.746094 353.082031 205.152344 353.207031 205.550781 353.371094 C 205.949219 353.535156 206.324219 353.738281 206.683594 353.976562 C 207.039062 354.214844 207.371094 354.484375 207.675781 354.789062 C 207.980469 355.09375 208.25 355.425781 208.488281 355.78125 C 208.730469 356.140625 208.929688 356.515625 209.09375 356.914062 C 209.257812 357.3125 209.382812 357.722656 209.46875 358.144531 C 209.550781 358.566406 209.59375 358.992188 209.59375 359.421875 Z M 209.59375 359.421875 " fill-opacity="1" fill-rule="nonzero"/></g></svg>