<svg xmlns="http://www.w3.org/2000/svg" xmlns:xlink="http://www.w3.org/1999/xlink" width="1080" zoomAndPan="magnify" viewBox="0 0 810 809.999993" height="1080" preserveAspectRatio="xMidYMid meet" version="1.0"><defs><clipPath id="71dcb8673d"><path d="M 189.046875 189.046875 L 621 189.046875 L 621 617 L 189.046875 617 Z M 189.046875 189.046875 " clip-rule="nonzero"/></clipPath></defs><g clip-path="url(#71dcb8673d)"><path fill="#000000" d="M 554.203125 513.246094 C 566.804688 513.246094 577.023438 523.464844 577.023438 536.066406 C 577.023438 548.671875 566.808594 558.886719 554.203125 558.886719 C 550.828125 558.886719 547.628906 558.15625 544.746094 556.839844 C 501.363281 599.507812 441.925781 621.019531 381.191406 615.671875 C 334.511719 611.5625 289.257812 591.699219 254.058594 556.992188 L 255.636719 570.320312 C 256.09375 574.1875 253.328125 577.695312 249.457031 578.152344 C 245.585938 578.609375 242.082031 575.84375 241.621094 571.972656 L 237.472656 536.871094 C 236.925781 532.210938 241.058594 528.261719 245.75 529.121094 L 279.941406 535.433594 C 283.761719 536.136719 286.296875 539.804688 285.59375 543.628906 C 284.894531 547.453125 281.226562 549.984375 277.402344 549.28125 L 263.742188 546.761719 C 296.558594 579.203125 338.808594 597.765625 382.40625 601.601562 C 438.78125 606.566406 493.921875 586.777344 534.34375 547.316406 C 532.460938 543.996094 531.382812 540.160156 531.382812 536.066406 C 531.382812 523.464844 541.601562 513.246094 554.203125 513.246094 Z M 373.824219 264.753906 C 339.355469 264.753906 311.414062 292.695312 311.414062 327.160156 C 311.414062 340.476562 315.585938 352.8125 322.691406 362.945312 C 316.167969 369.273438 309.648438 375.601562 303.125 381.929688 L 302.417969 381.203125 C 300.246094 378.964844 296.636719 378.910156 294.398438 381.082031 L 260.125 414.339844 C 257.886719 416.511719 257.832031 420.121094 260.003906 422.363281 L 272.378906 435.113281 C 274.550781 437.355469 278.160156 437.40625 280.402344 435.234375 L 314.671875 401.976562 C 316.914062 399.804688 316.964844 396.195312 314.792969 393.957031 L 314.089844 393.230469 L 333.28125 374.605469 C 344.1875 383.933594 358.347656 389.570312 373.824219 389.570312 C 408.289062 389.570312 436.230469 361.628906 436.230469 327.164062 C 436.234375 292.695312 408.289062 264.753906 373.824219 264.753906 Z M 373.824219 283.03125 C 398.195312 283.03125 417.953125 302.789062 417.953125 327.164062 C 417.953125 351.535156 398.195312 371.292969 373.824219 371.292969 C 349.449219 371.292969 329.691406 351.535156 329.691406 327.164062 C 329.691406 302.789062 349.449219 283.03125 373.824219 283.03125 Z M 300.261719 460.980469 C 297.828125 460.980469 295.847656 462.964844 295.847656 465.394531 L 295.847656 517.976562 C 295.847656 520.40625 297.828125 522.390625 300.261719 522.390625 L 323.441406 522.390625 C 325.875 522.390625 327.855469 520.40625 327.855469 517.976562 L 327.855469 465.394531 C 327.855469 462.964844 325.875 460.980469 323.441406 460.980469 Z M 478.566406 364.988281 C 476.136719 364.988281 474.152344 366.972656 474.152344 369.402344 L 474.152344 517.976562 C 474.152344 520.40625 476.136719 522.386719 478.566406 522.386719 L 501.75 522.386719 C 504.179688 522.386719 506.164062 520.40625 506.164062 517.976562 L 506.164062 369.402344 C 506.164062 366.972656 504.179688 364.988281 501.75 364.988281 Z M 442.316406 395.210938 L 419.132812 395.210938 C 416.703125 395.210938 414.71875 397.191406 414.71875 399.625 L 414.71875 517.976562 C 414.71875 520.40625 416.703125 522.386719 419.132812 522.386719 L 442.316406 522.386719 C 444.746094 522.386719 446.726562 520.40625 446.726562 517.976562 L 446.726562 399.625 C 446.726562 397.191406 444.746094 395.210938 442.316406 395.210938 Z M 382.878906 428.808594 C 375.152344 428.808594 367.425781 428.808594 359.695312 428.808594 C 357.265625 428.808594 355.28125 430.789062 355.28125 433.21875 C 355.28125 463.253906 355.28125 487.941406 355.28125 517.976562 C 355.28125 520.40625 357.265625 522.390625 359.695312 522.390625 C 367.425781 522.390625 375.152344 522.390625 382.878906 522.390625 C 385.308594 522.390625 387.292969 520.40625 387.292969 517.976562 C 387.292969 487.941406 387.292969 463.253906 387.292969 433.21875 C 387.292969 430.789062 385.308594 428.808594 382.878906 428.808594 Z M 198.816406 461.5 C 189.714844 426.457031 190.023438 389.734375 199.355469 355.160156 C 218.21875 285.289062 272.539062 230.261719 341.664062 210.300781 L 331.871094 206.824219 C 328.199219 205.527344 326.273438 201.5 327.566406 197.832031 C 328.863281 194.160156 332.886719 192.234375 336.558594 193.527344 L 369.324219 205.15625 C 373.839844 206.746094 375.449219 212.246094 372.632812 216.019531 L 351.492188 244.347656 C 349.164062 247.472656 344.738281 248.113281 341.617188 245.78125 C 338.492188 243.453125 337.851562 239.03125 340.183594 235.90625 L 350.144531 222.558594 C 283.671875 240.039062 231.015625 292.007812 212.984375 358.800781 C 204.339844 390.824219 203.984375 424.800781 212.273438 457.242188 C 224.792969 457.335938 234.917969 467.515625 234.917969 480.0625 C 234.917969 492.664062 224.699219 502.878906 212.097656 502.878906 C 199.496094 502.878906 189.277344 492.664062 189.277344 480.0625 C 189.277344 472.410156 193.039062 465.640625 198.816406 461.5 Z M 608.398438 452.132812 C 611.355469 449.605469 615.800781 449.953125 618.332031 452.90625 C 620.859375 455.863281 620.511719 460.308594 617.558594 462.835938 L 591.105469 485.398438 C 587.480469 488.5 581.910156 487.144531 580.054688 482.832031 L 566.085938 450.363281 C 564.546875 446.78125 566.203125 442.632812 569.78125 441.09375 C 573.363281 439.554688 577.511719 441.210938 579.050781 444.789062 L 585.605469 460.035156 C 593.019531 432.695312 594.386719 403.894531 589.472656 375.820312 C 576.65625 302.59375 522.671875 243.273438 451.347656 223.390625 C 447.382812 230.140625 440.050781 234.667969 431.660156 234.667969 C 419.054688 234.667969 408.839844 224.453125 408.839844 211.847656 C 408.839844 199.246094 419.054688 189.027344 431.660156 189.027344 C 443.507812 189.027344 453.242188 198.058594 454.371094 209.609375 C 531.234375 230.71875 589.578125 294.558594 603.375 373.394531 C 608.355469 401.84375 607.304688 431.015625 600.433594 458.929688 Z M 608.398438 452.132812 " fill-opacity="1" fill-rule="evenodd"/></g></svg>