<svg xmlns="http://www.w3.org/2000/svg" xmlns:xlink="http://www.w3.org/1999/xlink" width="1080" zoomAndPan="magnify" viewBox="0 0 810 809.999993" height="1080" preserveAspectRatio="xMidYMid meet" version="1.0"><defs><clipPath id="14ec30ef53"><path d="M 203 204 L 606 204 L 606 606.890625 L 203 606.890625 Z M 203 204 " clip-rule="nonzero"/></clipPath></defs><g clip-path="url(#14ec30ef53)"><path fill="#000000" d="M 605.679688 208.839844 C 605.675781 208.738281 605.671875 208.664062 605.667969 208.625 C 605.664062 208.554688 605.644531 208.492188 605.636719 208.429688 C 605.625 208.292969 605.601562 208.160156 605.578125 208.03125 C 605.558594 207.9375 605.550781 207.847656 605.527344 207.757812 C 605.511719 207.691406 605.480469 207.628906 605.460938 207.5625 C 605.425781 207.445312 605.386719 207.332031 605.339844 207.21875 C 605.304688 207.132812 605.273438 207.042969 605.234375 206.957031 C 605.199219 206.886719 605.160156 206.820312 605.121094 206.753906 C 605.070312 206.660156 605.015625 206.566406 604.960938 206.476562 C 604.90625 206.394531 604.855469 206.316406 604.800781 206.238281 C 604.75 206.167969 604.691406 206.105469 604.636719 206.039062 C 604.578125 205.964844 604.515625 205.890625 604.453125 205.820312 C 604.382812 205.75 604.316406 205.679688 604.246094 205.613281 C 604.175781 205.550781 604.105469 205.488281 604.03125 205.429688 C 603.964844 205.375 603.898438 205.316406 603.828125 205.265625 C 603.75 205.210938 603.671875 205.160156 603.589844 205.105469 C 603.5 205.046875 603.40625 204.996094 603.308594 204.945312 C 603.242188 204.90625 603.179688 204.867188 603.109375 204.835938 C 603.027344 204.792969 602.9375 204.765625 602.851562 204.730469 C 602.734375 204.683594 602.617188 204.640625 602.496094 204.605469 C 602.433594 204.585938 602.375 204.558594 602.3125 204.539062 C 602.222656 204.515625 602.128906 204.507812 602.039062 204.492188 C 601.90625 204.464844 601.777344 204.445312 601.640625 204.429688 C 601.574219 204.421875 601.511719 204.402344 601.441406 204.398438 C 601.421875 204.398438 601.242188 204.386719 600.945312 204.375 C 596.957031 204.191406 570.480469 203.421875 533.804688 212.644531 C 533.3125 212.769531 532.820312 212.894531 532.324219 213.019531 C 531.757812 213.164062 531.191406 213.3125 530.617188 213.464844 C 529.824219 213.671875 529.027344 213.886719 528.222656 214.105469 C 527.839844 214.210938 527.453125 214.3125 527.066406 214.421875 C 525.8125 214.765625 524.550781 215.121094 523.28125 215.492188 C 523.277344 215.492188 523.273438 215.492188 523.269531 215.492188 C 480.527344 227.925781 419.320312 256.585938 369.242188 322.527344 C 353.613281 320.40625 325.335938 319.730469 294.847656 334.277344 C 255.164062 353.214844 224.496094 391.441406 203.710938 447.898438 C 203.007812 449.804688 203.667969 451.941406 205.320312 453.121094 C 206.105469 453.679688 207.019531 453.957031 207.929688 453.957031 C 208.945312 453.957031 209.953125 453.613281 210.78125 452.941406 C 211.414062 452.421875 272.539062 403.003906 317.589844 416.632812 C 315.597656 421.769531 313.65625 427.023438 311.796875 432.371094 L 309.273438 429.851562 C 307.515625 428.09375 304.667969 428.09375 302.914062 429.851562 L 289.738281 443.035156 C 287.980469 444.792969 287.980469 447.644531 289.738281 449.402344 L 300.453125 460.125 L 283.214844 477.375 C 281.457031 479.132812 281.457031 481.984375 283.214844 483.742188 L 326.507812 527.0625 C 327.386719 527.945312 328.539062 528.382812 329.6875 528.382812 C 330.839844 528.382812 331.992188 527.945312 332.871094 527.0625 L 350.109375 509.8125 L 360.820312 520.53125 C 361.699219 521.410156 362.851562 521.851562 364.003906 521.851562 C 365.152344 521.851562 366.304688 521.410156 367.183594 520.53125 L 380.359375 507.34375 C 382.117188 505.589844 382.117188 502.738281 380.359375 500.980469 L 377.84375 498.464844 C 383.199219 496.597656 388.449219 494.65625 393.574219 492.664062 C 407.191406 537.742188 357.808594 598.914062 357.289062 599.542969 C 356.007812 601.117188 355.933594 603.351562 357.109375 605.007812 C 357.972656 606.21875 359.347656 606.894531 360.773438 606.894531 C 361.292969 606.894531 361.816406 606.804688 362.328125 606.617188 C 418.746094 585.816406 456.949219 555.132812 475.875 515.417969 C 490.414062 484.90625 489.738281 456.613281 487.617188 440.972656 C 553.519531 390.859375 582.160156 329.609375 594.585938 286.835938 C 607.089844 243.765625 605.84375 212.015625 605.679688 208.839844 Z M 217.871094 436.554688 C 237.511719 390.292969 264.667969 358.652344 298.722656 342.402344 C 324.183594 330.253906 347.96875 329.492188 363.105469 330.886719 C 346.78125 353.839844 332.621094 379.808594 320.933594 408.246094 C 283.9375 396.511719 239.390625 421.867188 217.871094 436.554688 Z M 329.6875 517.515625 L 292.753906 480.558594 L 306.816406 466.488281 L 343.746094 503.449219 Z M 364 510.984375 L 353.292969 500.265625 C 353.289062 500.265625 353.289062 500.265625 353.289062 500.265625 C 353.289062 500.261719 353.289062 500.261719 353.285156 500.261719 L 310 456.945312 C 309.996094 456.941406 309.996094 456.941406 309.996094 456.941406 C 309.992188 456.941406 309.992188 456.9375 309.992188 456.9375 L 299.277344 446.21875 L 306.09375 439.398438 L 370.8125 504.164062 Z M 467.753906 511.542969 C 451.511719 545.625 419.894531 572.796875 373.664062 592.449219 C 388.339844 570.914062 413.675781 526.339844 401.949219 489.320312 C 430.371094 477.625 456.324219 463.453125 479.261719 447.117188 C 480.652344 462.265625 479.894531 486.066406 467.753906 511.542969 Z M 480.085938 435.386719 C 455.242188 453.960938 426.480469 469.84375 394.601562 482.601562 C 386.957031 485.65625 378.9375 488.59375 370.75 491.371094 L 318.886719 439.46875 C 321.648438 431.292969 324.585938 423.269531 327.648438 415.601562 C 340.394531 383.703125 356.269531 354.921875 374.828125 330.0625 C 421.878906 267.039062 479.398438 238.492188 520.992188 225.578125 C 524.222656 241.234375 531.847656 255.414062 543.265625 266.839844 C 554.683594 278.261719 568.855469 285.894531 584.5 289.125 C 571.59375 330.75 543.066406 388.308594 480.085938 435.386719 Z M 596.769531 213.964844 C 596.769531 214.1875 596.769531 214.417969 596.765625 214.652344 C 596.765625 214.816406 596.765625 214.980469 596.761719 215.15625 C 596.761719 215.554688 596.753906 215.96875 596.746094 216.40625 C 596.746094 216.53125 596.742188 216.667969 596.738281 216.792969 C 596.730469 217.140625 596.722656 217.496094 596.714844 217.863281 C 596.710938 218.046875 596.707031 218.238281 596.699219 218.429688 C 596.691406 218.773438 596.679688 219.125 596.667969 219.488281 C 596.660156 219.679688 596.652344 219.867188 596.648438 220.0625 C 596.628906 220.585938 596.605469 221.125 596.582031 221.683594 C 596.578125 221.75 596.574219 221.816406 596.570312 221.886719 C 596.546875 222.441406 596.515625 223.019531 596.484375 223.609375 C 596.476562 223.804688 596.464844 224.007812 596.453125 224.203125 C 596.425781 224.667969 596.398438 225.144531 596.367188 225.625 C 596.355469 225.839844 596.339844 226.050781 596.328125 226.269531 C 596.289062 226.863281 596.246094 227.46875 596.203125 228.089844 C 596.195312 228.1875 596.1875 228.28125 596.179688 228.382812 C 596.128906 229.097656 596.070312 229.828125 596.007812 230.578125 C 595.988281 230.789062 595.96875 231.003906 595.949219 231.21875 C 595.902344 231.785156 595.851562 232.359375 595.796875 232.941406 C 595.773438 233.1875 595.75 233.4375 595.726562 233.6875 C 595.664062 234.34375 595.597656 235.007812 595.523438 235.683594 C 595.507812 235.839844 595.496094 235.988281 595.476562 236.144531 C 595.390625 236.976562 595.292969 237.824219 595.195312 238.6875 C 595.171875 238.898438 595.144531 239.113281 595.117188 239.324219 C 595.039062 239.996094 594.957031 240.671875 594.867188 241.359375 C 594.832031 241.636719 594.796875 241.914062 594.761719 242.195312 C 594.671875 242.898438 594.574219 243.617188 594.476562 244.339844 C 594.445312 244.554688 594.417969 244.765625 594.386719 244.980469 C 594.253906 245.917969 594.117188 246.867188 593.972656 247.832031 C 593.941406 248.015625 593.914062 248.207031 593.882812 248.390625 C 593.765625 249.179688 593.636719 249.976562 593.507812 250.785156 C 593.460938 251.078125 593.410156 251.378906 593.359375 251.675781 C 593.234375 252.441406 593.101562 253.21875 592.964844 254 C 592.921875 254.257812 592.878906 254.507812 592.832031 254.765625 C 592.648438 255.804688 592.457031 256.851562 592.257812 257.917969 C 592.238281 258.019531 592.214844 258.125 592.199219 258.226562 C 592.015625 259.179688 591.828125 260.144531 591.632812 261.117188 C 591.570312 261.417969 591.511719 261.71875 591.449219 262.015625 C 591.277344 262.851562 591.101562 263.695312 590.917969 264.546875 C 590.859375 264.828125 590.800781 265.113281 590.738281 265.394531 C 590.253906 267.628906 589.726562 269.910156 589.164062 272.234375 C 589.089844 272.53125 589.015625 272.832031 588.941406 273.128906 C 588.71875 274.03125 588.492188 274.9375 588.257812 275.851562 C 588.179688 276.160156 588.101562 276.464844 588.019531 276.773438 C 587.714844 277.945312 587.402344 279.121094 587.074219 280.3125 C 587.074219 280.320312 587.070312 280.332031 587.066406 280.339844 C 587.054688 280.382812 587.042969 280.425781 587.03125 280.46875 C 572.828125 277.675781 559.960938 270.8125 549.625 260.472656 C 539.289062 250.128906 532.433594 237.257812 529.644531 223.042969 C 530.921875 222.691406 532.1875 222.351562 533.441406 222.027344 C 533.648438 221.972656 533.851562 221.917969 534.054688 221.867188 C 535.15625 221.582031 536.25 221.308594 537.332031 221.039062 C 537.433594 221.015625 537.539062 220.988281 537.644531 220.964844 C 565.945312 214.046875 587.992188 213.277344 596.769531 213.296875 C 596.769531 213.347656 596.769531 213.394531 596.769531 213.449219 C 596.773438 213.617188 596.769531 213.789062 596.769531 213.964844 Z M 596.769531 213.964844 " fill-opacity="1" fill-rule="nonzero"/></g><path fill="#000000" d="M 471.410156 298.40625 C 449.179688 298.40625 431.097656 316.503906 431.097656 338.746094 C 431.097656 360.984375 449.179688 379.082031 471.410156 379.082031 C 493.636719 379.082031 511.71875 360.984375 511.71875 338.746094 C 511.71875 316.503906 493.636719 298.40625 471.410156 298.40625 Z M 471.410156 370.078125 C 454.140625 370.078125 440.09375 356.023438 440.09375 338.746094 C 440.09375 321.464844 454.140625 307.410156 471.410156 307.410156 C 488.675781 307.410156 502.722656 321.464844 502.722656 338.746094 C 502.722656 356.023438 488.675781 370.078125 471.410156 370.078125 Z M 471.410156 370.078125 " fill-opacity="1" fill-rule="nonzero"/><path fill="#000000" d="M 294.070312 516.199219 C 292.316406 514.441406 289.46875 514.441406 287.710938 516.199219 L 231.238281 572.703125 C 229.484375 574.460938 229.484375 577.3125 231.238281 579.070312 C 232.117188 579.949219 233.269531 580.390625 234.421875 580.390625 C 235.570312 580.390625 236.722656 579.949219 237.601562 579.070312 L 294.070312 522.5625 C 295.828125 520.804688 295.828125 517.957031 294.070312 516.199219 Z M 294.070312 516.199219 " fill-opacity="1" fill-rule="nonzero"/><path fill="#000000" d="M 315.738281 537.878906 C 313.980469 536.121094 311.132812 536.121094 309.375 537.878906 L 272.503906 574.777344 C 270.746094 576.535156 270.746094 579.386719 272.503906 581.144531 C 273.382812 582.023438 274.53125 582.464844 275.683594 582.464844 C 276.835938 582.464844 277.988281 582.023438 278.867188 581.144531 L 315.738281 544.246094 C 317.496094 542.488281 317.496094 539.636719 315.738281 537.878906 Z M 315.738281 537.878906 " fill-opacity="1" fill-rule="nonzero"/><path fill="#000000" d="M 355.503906 541.453125 C 353.746094 539.695312 350.898438 539.695312 349.140625 541.453125 L 310.496094 580.125 C 308.738281 581.882812 308.738281 584.734375 310.496094 586.492188 C 311.375 587.371094 312.527344 587.808594 313.679688 587.808594 C 314.828125 587.808594 315.980469 587.371094 316.859375 586.492188 L 355.503906 547.820312 C 357.261719 546.0625 357.261719 543.210938 355.503906 541.453125 Z M 355.503906 541.453125 " fill-opacity="1" fill-rule="nonzero"/><path fill="#000000" d="M 268.832031 461.089844 C 270.589844 459.332031 270.589844 456.484375 268.832031 454.726562 C 267.074219 452.96875 264.226562 452.96875 262.472656 454.726562 L 223.824219 493.398438 C 222.070312 495.152344 222.070312 498.003906 223.824219 499.761719 C 224.703125 500.640625 225.855469 501.082031 227.007812 501.082031 C 228.160156 501.082031 229.308594 500.640625 230.1875 499.761719 Z M 268.832031 461.089844 " fill-opacity="1" fill-rule="nonzero"/><path fill="#000000" d="M 235.53125 537.78125 L 272.402344 500.882812 C 274.160156 499.125 274.160156 496.273438 272.402344 494.515625 C 270.644531 492.757812 267.796875 492.757812 266.039062 494.515625 L 229.167969 531.414062 C 227.410156 533.171875 227.410156 536.023438 229.167969 537.78125 C 230.046875 538.660156 231.199219 539.097656 232.347656 539.097656 C 233.5 539.097656 234.652344 538.660156 235.53125 537.78125 Z M 235.53125 537.78125 " fill-opacity="1" fill-rule="nonzero"/></svg>