<?xml version="1.0" standalone="no"?>
<!DOCTYPE svg PUBLIC "-//W3C//DTD SVG 1.1//EN" "http://www.w3.org/Graphics/SVG/1.1/DTD/svg11.dtd">
<svg xmlns="http://www.w3.org/2000/svg" width="84" height="45" viewBox="0 0 84 45" fill="none">
<path d="M68.46 32.2001C65.46 32.2001 62.76 31.5001 60.46 30.2001C58.16 28.9001 56.26 27.0001 54.96 24.7001C53.66 22.4001 52.96 19.8 52.96 16.9C52.96 14 53.66 11.4 54.96 9.00005C56.26 6.70005 58.16 4.80005 60.46 3.40005C62.76 2.00005 65.46 1.30005 68.46 1.30005C71.46 1.30005 74.06 2.00005 76.36 3.40005C78.66 4.80005 80.4599 6.60005 81.7599 9.00005C83.0599 11.3 83.7599 14 83.7599 16.9C83.7599 19.8 83.0599 22.4001 81.7599 24.7001C80.4599 27.0001 78.66 28.8001 76.36 30.2001C74.06 31.6001 71.36 32.2001 68.46 32.2001ZM68.46 26.9C70.36 26.9 71.96 26.5 73.46 25.6C74.86 24.7 75.9599 23.5 76.7599 22C77.5599 20.5 77.96 18.8 77.96 16.8C77.96 14.8 77.5599 13.2 76.7599 11.6C75.9599 10.1 74.86 8.80005 73.46 7.90005C72.06 7.00005 70.36 6.60005 68.46 6.60005C66.56 6.60005 64.86 7.00005 63.46 7.90005C62.06 8.80005 60.96 10 60.16 11.6C59.36 13.1 58.96 14.9 58.96 16.8C58.96 18.7 59.36 20.4 60.16 22C60.96 23.5 62.06 24.7 63.46 25.6C64.86 26.5 66.46 26.9 68.46 26.9Z" fill="#0744DC"/>
<path d="M59.6601 36.9H77.0601C80.4601 36.9 83.1601 39.6 83.1601 43C83.1601 43.2 83.0601 43.3 82.8601 43.3H53.8601C53.6601 43.3 53.5601 43.2 53.5601 43C53.5601 39.6 56.2601 36.9 59.6601 36.9Z" fill="#0744DC"/>
<path d="M26.9998 28.3H39.3998C36.0998 31.3 33.1998 34.5 29.3998 36.8C28.0398 37.62 26.5898 38.28 25.0498 38.68C23.4198 39.1 21.7998 39.17 20.1298 38.99C18.5898 38.82 17.0798 38.43 15.6598 37.79C13.7598 36.89 12.0598 35.69 10.5598 34.09C9.15977 32.49 8.05977 30.69 7.25977 28.69C6.45977 26.59 6.05977 24.49 6.05977 22.19C6.05977 19.89 6.45977 17.69 7.25977 15.69C8.05977 13.69 9.15977 11.89 10.5598 10.29C11.9598 8.68999 13.6598 7.48999 15.6598 6.58999C17.6598 5.68999 19.7598 5.28999 22.0598 5.28999C24.8598 5.28999 27.3598 5.88999 29.4598 7.08999C31.5598 8.28999 33.5598 9.78999 34.8598 11.59L41.2598 11.49C40.6598 9.38999 37.9598 6.38999 36.8598 5.38999C35.7598 4.38999 34.4598 3.38999 32.9598 2.58999C31.4598 1.78999 29.8598 1.08999 28.0598 0.68999C26.2598 0.18999 24.2598 -0.0100098 22.0598 -0.0100098C18.8598 -0.0100098 15.9598 0.58999 13.2598 1.68999C10.5598 2.88999 8.25977 4.48999 6.35977 6.48999C4.45977 8.48999 2.85977 10.89 1.85977 13.59C0.759772 16.29 0.259766 19.19 0.259766 22.19C0.259766 25.19 0.759772 28.09 1.85977 30.79C2.95977 33.49 4.45977 35.89 6.35977 37.89C8.35977 39.99 10.6598 41.59 13.2598 42.69C14.6798 43.29 16.1198 43.75 17.6398 44.02C19.2098 44.3 20.8398 44.44 22.4398 44.37C24.0498 44.3 25.6698 44.08 27.2298 43.66C28.6198 43.29 29.9598 42.78 31.2498 42.14C32.5098 41.51 33.7098 40.77 34.8498 39.94C35.9098 39.18 36.8998 38.34 37.8898 37.49C39.7898 35.79 41.6898 33.29 43.2898 31.89L43.0898 43.19H48.7898V23.1H26.9898V28.3H26.9998Z" fill="#0744DC"/>
</svg>