<svg width="155" height="27" viewBox="0 0 155 27" fill="none" xmlns="http://www.w3.org/2000/svg">
<path d="M127.47 15.1379C126.126 15.1379 124.917 14.8206 123.874 14.2464C122.832 13.6722 121.986 12.811 121.411 11.7836C120.837 10.7561 120.52 9.57757 120.52 8.27816C120.52 6.97874 120.837 5.81531 121.411 4.72743C122.001 3.69999 122.847 2.83875 123.874 2.21926C124.902 1.59977 126.126 1.28247 127.47 1.28247C128.815 1.28247 129.979 1.59977 131.021 2.21926C132.064 2.83875 132.864 3.65466 133.439 4.72743C134.028 5.75488 134.33 6.97874 134.33 8.27816C134.33 9.57757 134.013 10.741 133.439 11.7836C132.864 12.8261 132.049 13.6269 131.021 14.2464C129.994 14.8659 128.77 15.1379 127.47 15.1379ZM127.47 12.7657C128.317 12.7657 129.042 12.5844 129.722 12.1764C130.356 11.7684 130.84 11.2396 131.202 10.5597C131.565 9.87976 131.746 9.12429 131.746 8.23283C131.746 7.34137 131.565 6.61612 131.202 5.90597C130.84 5.22604 130.356 4.65188 129.722 4.24393C129.087 3.83597 128.332 3.65466 127.47 3.65466C126.609 3.65466 125.854 3.83597 125.219 4.24393C124.584 4.65188 124.101 5.18072 123.738 5.90597C123.376 6.5859 123.194 7.3867 123.194 8.23283C123.194 9.07896 123.376 9.84954 123.738 10.5597C124.101 11.2396 124.584 11.7684 125.219 12.1764C125.854 12.5844 126.564 12.7657 127.47 12.7657Z" fill="#0744DC"/>
<path d="M123.512 17.2533H131.323C132.849 17.2533 134.058 18.4621 134.058 19.9881L133.922 20.1241H120.913L120.777 19.9881C120.777 18.4621 121.986 17.2533 123.512 17.2533Z" fill="#0744DC"/>
<path d="M108.855 13.3852H114.416C112.935 14.7299 111.635 16.1653 109.928 17.1928C109.324 17.5554 108.674 17.8576 107.979 18.0389C107.254 18.2353 106.513 18.2655 105.773 18.1749C105.078 18.0993 104.398 17.918 103.763 17.6309C102.917 17.223 102.147 16.6941 101.482 15.9689C100.847 15.2436 100.364 14.4428 100.001 13.5514C99.6385 12.6146 99.4572 11.6627 99.4572 10.6352C99.4572 9.6078 99.6385 8.61058 100.001 7.71912C100.364 6.82766 100.847 6.01175 101.482 5.3016C102.116 4.59146 102.872 4.04751 103.763 3.63956C104.655 3.2316 105.607 3.05029 106.634 3.05029C107.888 3.05029 109.006 3.32226 109.958 3.85109C110.895 4.39503 111.802 5.05985 112.376 5.87576L115.247 5.83043C114.975 4.89365 113.766 3.5489 113.267 3.09562C112.769 2.64233 112.194 2.20416 111.515 1.84153C110.835 1.4789 110.124 1.1616 109.309 0.9954C108.508 0.768758 107.601 0.678101 106.619 0.678101C105.184 0.678101 103.884 0.950071 102.675 1.43357C101.467 1.97752 100.424 2.68766 99.578 3.59423C98.7319 4.48569 98.0066 5.57357 97.5534 6.78233C97.0547 7.99109 96.8281 9.29051 96.8281 10.6352C96.8281 11.98 97.0547 13.2794 97.5534 14.4882C98.052 15.6969 98.7168 16.7697 99.578 17.6763C100.469 18.6131 101.512 19.3383 102.675 19.8369C103.31 20.1089 103.96 20.3053 104.64 20.4413C105.35 20.5622 106.075 20.6377 106.8 20.5924C107.526 20.5622 108.251 20.4564 108.946 20.2751C109.565 20.1089 110.17 19.8822 110.744 19.5952C111.303 19.3081 111.847 18.9757 112.361 18.6131C112.829 18.2655 113.282 17.8878 113.721 17.5101C114.567 16.7546 115.428 15.6214 116.138 15.0019L116.047 20.0787H118.601V11.0583H108.81V13.3852H108.855Z" fill="#0744DC"/>
<path d="M0.550781 1.19189H2.99851V17.9181H10.4475V20.1392H0.550781V1.19189Z" fill="white"/>
<path d="M23.1094 20.1392V17.8425C23.0338 18.0843 22.8072 18.4167 22.4446 18.8397C22.0819 19.2628 21.5682 19.6406 20.9336 19.973C20.299 20.3054 19.5436 20.4867 18.6823 20.4867C17.5944 20.4867 16.5972 20.2298 15.7208 19.7161C14.8445 19.2024 14.1343 18.4771 13.6055 17.5403C13.0918 16.6035 12.8198 15.5157 12.8198 14.2616C12.8198 13.0075 13.0767 11.9196 13.6055 10.9828C14.1192 10.046 14.8294 9.32078 15.7208 8.80706C16.6123 8.29333 17.5944 8.02136 18.6823 8.02136C19.5284 8.02136 20.2688 8.17246 20.9034 8.47465C21.538 8.77684 22.0366 9.13946 22.4144 9.53231C22.7921 9.92516 23.0187 10.2727 23.0792 10.5598V8.35377H25.542V20.1392H23.0943H23.1094ZM15.2978 14.2616C15.2978 15.1077 15.4791 15.8481 15.8568 16.4676C16.2346 17.087 16.7181 17.5706 17.3073 17.903C17.9117 18.2505 18.5463 18.4167 19.2262 18.4167C19.9515 18.4167 20.6012 18.2505 21.1754 17.903C21.7495 17.5554 22.2028 17.0719 22.5352 16.4525C22.8676 15.833 23.0338 15.0926 23.0338 14.2616C23.0338 13.4306 22.8676 12.7053 22.5352 12.0707C22.2028 11.4361 21.7495 10.9526 21.1754 10.6051C20.6012 10.2576 19.9515 10.0763 19.2262 10.0763C18.5463 10.0763 17.9117 10.2425 17.3073 10.59C16.703 10.9375 16.2195 11.421 15.8568 12.0405C15.4791 12.66 15.2978 13.4003 15.2978 14.2465V14.2616Z" fill="white"/>
<path d="M36.1035 8.35381H39.1254L33.0363 13.9594L39.5182 20.1392H36.4661L30.9965 14.9113V20.1392H28.5034V0.391113H30.9965V13.0226L36.1035 8.35381Z" fill="white"/>
<path d="M45.6822 8.00619C46.3017 8.00619 46.8607 8.06662 47.4047 8.1875C47.9335 8.30837 48.4019 8.45947 48.7796 8.62567C49.1725 8.79188 49.4445 8.94297 49.6107 9.07896L48.6134 10.6503C48.417 10.4841 48.0846 10.2877 47.586 10.0762C47.0874 9.86465 46.5283 9.75889 45.924 9.75889C45.2591 9.75889 44.685 9.89487 44.2166 10.1517C43.7482 10.4086 43.5216 10.8014 43.5216 11.2849C43.5216 11.7684 43.7633 12.1764 44.2468 12.4635C44.7303 12.7506 45.38 12.9923 46.1959 13.1887C46.8456 13.3398 47.45 13.5514 48.0242 13.8082C48.5983 14.0651 49.0516 14.4277 49.4142 14.881C49.7769 15.3343 49.9431 15.9387 49.9431 16.6941C49.9431 17.3892 49.8071 17.9633 49.5049 18.4468C49.2178 18.9303 48.825 19.3232 48.3415 19.6103C47.858 19.8973 47.314 20.1089 46.7096 20.2449C46.1053 20.3808 45.5009 20.4413 44.8663 20.4413C44.141 20.4413 43.4762 20.3657 42.9021 20.2146C42.3128 20.0636 41.8293 19.8822 41.4364 19.6858C41.0436 19.4743 40.7565 19.3081 40.5752 19.1419L41.5724 17.359C41.8293 17.6007 42.2372 17.8576 42.7963 18.1144C43.3705 18.3864 44.0202 18.5224 44.7454 18.5224C45.5462 18.5224 46.1959 18.3562 46.6945 18.0087C47.1931 17.6763 47.4349 17.223 47.4349 16.679C47.4349 16.2711 47.314 15.9387 47.0723 15.6818C46.8305 15.4401 46.5132 15.2285 46.1053 15.0774C45.6973 14.9263 45.2591 14.7903 44.7908 14.6695C44.3375 14.5637 43.8842 14.4277 43.446 14.2464C43.0078 14.0651 42.615 13.8536 42.2524 13.5816C41.8897 13.3096 41.6027 12.9772 41.3911 12.5692C41.1796 12.1613 41.0738 11.708 41.0738 11.1641C41.0738 10.4841 41.2854 9.90998 41.7235 9.42648C42.1617 8.94297 42.7207 8.58034 43.4158 8.30837C44.1108 8.05151 44.8814 7.91553 45.6973 7.91553L45.6822 8.00619Z" fill="white"/>
<path d="M59.493 8.00629C60.2636 8.00629 61.019 8.1725 61.7594 8.48979C62.4846 8.80709 63.089 9.33592 63.5725 10.031C64.0409 10.7411 64.2827 11.6477 64.2827 12.7809V20.1241H61.7594V13.2644C61.7594 12.101 61.4874 11.2548 60.9586 10.7109C60.4298 10.1669 59.7348 9.91008 58.8735 9.91008C58.2994 9.91008 57.7554 10.0763 57.2266 10.3936C56.6977 10.7109 56.2747 11.1491 55.9272 11.7081C55.5796 12.2672 55.4134 12.9018 55.4134 13.6119V20.109H52.8901V0.391113H55.4134V10.454C55.5041 10.1216 55.7307 9.7741 56.1085 9.39636C56.4862 9.01862 56.9697 8.68622 57.559 8.41425C58.1482 8.14228 58.7979 8.00629 59.493 8.00629Z" fill="white"/>
<path d="M77.1104 20.1392V17.8425C77.0348 18.0843 76.8082 18.4167 76.4455 18.8397C76.0829 19.2628 75.5692 19.6406 74.9346 19.973C74.3 20.3054 73.5445 20.4867 72.6833 20.4867C71.5954 20.4867 70.5982 20.2298 69.7218 19.7161C68.8304 19.2024 68.1354 18.4771 67.6065 17.5403C67.0777 16.6035 66.8208 15.5157 66.8208 14.2616C66.8208 13.0075 67.0777 11.9196 67.6065 10.9828C68.1202 10.046 68.8304 9.32078 69.7218 8.80706C70.5982 8.29333 71.5954 8.02136 72.6833 8.02136C73.5294 8.02136 74.2698 8.17246 74.9044 8.47465C75.539 8.77684 76.0376 9.13946 76.4153 9.53231C76.7931 9.92516 77.0197 10.2727 77.0801 10.5598V8.35377H79.543V20.1392H77.1104ZM69.2988 14.2616C69.2988 15.1077 69.4801 15.8481 69.8578 16.4676C70.2356 17.087 70.719 17.5706 71.3083 17.903C71.9127 18.2505 72.5473 18.4167 73.2273 18.4167C73.9525 18.4167 74.6022 18.2505 75.1763 17.903C75.7505 17.5554 76.2038 17.0719 76.5362 16.4525C76.8686 15.833 77.0348 15.0926 77.0348 14.2616C77.0348 13.4306 76.8686 12.7053 76.5362 12.0707C76.2038 11.4361 75.7505 10.9526 75.1763 10.6051C74.6022 10.2576 73.9525 10.0763 73.2273 10.0763C72.5473 10.0763 71.9127 10.2425 71.3083 10.59C70.7039 10.9375 70.2204 11.421 69.8578 12.0405C69.4801 12.66 69.2988 13.4003 69.2988 14.2465V14.2616Z" fill="white"/>
<path d="M87.7926 17.8576L91.7664 8.35376H94.2594L86.3118 26.1074H83.7886L86.4629 20.1392L81.6128 8.35376H84.1512L87.7926 17.8576Z" fill="white"/>
<path d="M139.769 14.3976C139.769 15.1078 139.935 15.7575 140.223 16.3316C140.525 16.9209 140.963 17.3742 141.552 17.7217C142.141 18.0692 142.867 18.2354 143.728 18.2354C144.453 18.2354 145.073 18.1297 145.586 17.9181C146.1 17.7066 146.523 17.4497 146.84 17.1475C147.173 16.8454 147.399 16.5734 147.551 16.3316L148.774 17.8426C148.457 18.2959 148.079 18.7038 147.626 19.0513C147.173 19.3989 146.614 19.6557 145.964 19.8521C145.314 20.0334 144.514 20.1241 143.577 20.1241C142.308 20.1241 141.22 19.8521 140.298 19.3082C139.376 18.7643 138.666 18.0088 138.168 17.0569C137.669 16.0899 137.427 14.9869 137.427 13.7479C137.427 12.5996 137.669 11.557 138.137 10.6354C138.606 9.71368 139.286 8.98842 140.177 8.44448C141.069 7.90054 142.157 7.64368 143.411 7.64368C144.574 7.64368 145.571 7.88543 146.432 8.36893C147.294 8.85244 147.959 9.53236 148.427 10.4087C148.895 11.2851 149.137 12.3427 149.137 13.5666C149.137 13.6421 149.137 13.7781 149.137 13.9745C149.137 14.171 149.122 14.307 149.107 14.3825H139.784L139.769 14.3976ZM146.75 12.524C146.75 12.1312 146.629 11.7081 146.417 11.2246C146.206 10.7411 145.858 10.3483 145.375 10.0159C144.891 9.68346 144.257 9.51725 143.441 9.51725C142.625 9.51725 141.93 9.68346 141.416 10.0008C140.902 10.3332 140.525 10.726 140.283 11.1793C140.041 11.6477 139.905 12.0859 139.86 12.5089H146.75V12.524Z" fill="white"/>
<path d="M154.471 0.0284424H151.963V19.7765H154.471V0.0284424Z" fill="white"/>
</svg>
