<?xml version="1.0" standalone="no"?>
<!DOCTYPE svg PUBLIC "-//W3C//DTD SVG 1.1//EN" "http://www.w3.org/Graphics/SVG/1.1/DTD/svg11.dtd">
<svg xmlns="http://www.w3.org/2000/svg" width="84" height="46" viewBox="0 0 84 46" fill="none">
<path d="M68.6602 33.16C65.6602 33.16 62.9602 32.46 60.6602 31.16C58.3602 29.86 56.4602 27.96 55.1602 25.66C53.8602 23.36 53.1602 20.76 53.1602 17.86C53.1602 14.96 53.8602 12.36 55.1602 9.95999C56.4602 7.65999 58.3602 5.75999 60.6602 4.35999C62.9602 2.95999 65.6602 2.26001 68.6602 2.26001C71.6602 2.26001 74.2602 2.95999 76.5602 4.35999C78.8602 5.75999 80.6602 7.55999 81.9602 9.95999C83.2602 12.26 83.9602 14.96 83.9602 17.86C83.9602 20.76 83.2602 23.36 81.9602 25.66C80.6602 27.96 78.8602 29.76 76.5602 31.16C74.2602 32.56 71.5602 33.16 68.6602 33.16ZM68.6602 27.86C70.5602 27.86 72.1602 27.46 73.6602 26.56C75.0602 25.66 76.1602 24.46 76.9602 22.96C77.7602 21.46 78.1602 19.76 78.1602 17.76C78.1602 15.76 77.7602 14.16 76.9602 12.56C76.1602 11.06 75.0602 9.75999 73.6602 8.85999C72.2602 7.95999 70.5602 7.56 68.6602 7.56C66.7602 7.56 65.0602 7.95999 63.6602 8.85999C62.2602 9.75999 61.1602 10.96 60.3602 12.56C59.5602 14.06 59.1602 15.86 59.1602 17.76C59.1602 19.66 59.5602 21.36 60.3602 22.96C61.1602 24.46 62.2602 25.66 63.6602 26.56C65.0602 27.46 66.6602 27.86 68.6602 27.86Z" fill="white"/>
<path d="M59.8598 37.86H77.2598C80.6598 37.86 83.3598 40.56 83.3598 43.96C83.3598 44.16 83.2598 44.26 83.0598 44.26H54.0598C53.8598 44.26 53.7598 44.16 53.7598 43.96C53.7598 40.56 56.4598 37.86 59.8598 37.86Z" fill="white"/>
<path d="M27.2 29.26H39.6C36.3 32.26 33.4 35.46 29.6 37.76C28.24 38.58 26.79 39.24 25.25 39.64C23.62 40.06 22 40.13 20.33 39.95C18.79 39.78 17.28 39.39 15.86 38.75C13.96 37.85 12.2599 36.65 10.7599 35.05C9.35995 33.45 8.25996 31.65 7.45996 29.65C6.65996 27.55 6.25995 25.45 6.25995 23.15C6.25995 20.85 6.65996 18.65 7.45996 16.65C8.25996 14.65 9.35995 12.85 10.7599 11.25C12.1599 9.65 13.86 8.44999 15.86 7.54999C17.86 6.64999 19.9599 6.25 22.2599 6.25C25.0599 6.25 27.56 6.84999 29.66 8.04999C31.76 9.24999 33.76 10.75 35.06 12.55L41.46 12.45C40.86 10.35 38.16 7.35001 37.06 6.35001C35.96 5.35001 34.66 4.34999 33.16 3.54999C31.66 2.74999 30.0599 2.04999 28.2599 1.64999C26.4599 1.14999 24.4599 0.950012 22.2599 0.950012C19.0599 0.950012 16.16 1.54999 13.46 2.64999C10.76 3.84999 8.45995 5.45001 6.55995 7.45001C4.65995 9.45001 3.05995 11.85 2.05995 14.55C0.959952 17.25 0.459961 20.15 0.459961 23.15C0.459961 26.15 0.959952 29.05 2.05995 31.75C3.15995 34.45 4.65995 36.85 6.55995 38.85C8.55995 40.95 10.86 42.55 13.46 43.65C14.88 44.25 16.32 44.71 17.84 44.98C19.41 45.26 21.04 45.41 22.64 45.33C24.25 45.26 25.8699 45.04 27.4299 44.62C28.8199 44.25 30.16 43.74 31.45 43.1C32.71 42.47 33.91 41.73 35.05 40.9C36.11 40.14 37.1 39.3 38.09 38.45C39.99 36.75 41.89 34.25 43.49 32.85L43.2899 44.15H48.99V24.05H27.19V29.25L27.2 29.26Z" fill="white"/>
</svg>